<svg width="503" height="716" viewBox="0 0 503 716" fill="none" xmlns="http://www.w3.org/2000/svg">
<path style="mix-blend-mode:multiply" opacity="0.5" d="M502.597 689.517C503.397 703.417 391.552 715.094 252.764 715.597C113.976 716.1 0.810851 705.236 0.00385127 691.338C-0.803149 677.44 111.047 665.759 249.838 665.258C388.629 664.757 501.786 675.617 502.597 689.517Z" fill="url(#paint0_radial)"/>
<path d="M103.635 103.43C103.635 104.597 103.171 105.716 102.346 106.541C101.521 107.366 100.402 107.83 99.235 107.83C98.068 107.83 96.9488 107.366 96.1237 106.541C95.2985 105.716 94.835 104.597 94.835 103.43V84.1949C94.835 83.028 95.2985 81.9088 96.1237 81.0836C96.9488 80.2585 98.068 79.7949 99.235 79.7949C100.402 79.7949 101.521 80.2585 102.346 81.0836C103.171 81.9088 103.635 83.028 103.635 84.1949V103.43Z" fill="url(#paint1_linear)"/>
<path d="M112.979 178.174C112.979 179.329 112.752 180.472 112.31 181.539C111.868 182.606 111.22 183.576 110.404 184.393C109.587 185.209 108.618 185.857 107.551 186.299C106.484 186.741 105.34 186.968 104.185 186.968C101.853 186.968 99.6164 186.041 97.9674 184.392C96.3185 182.743 95.3921 180.506 95.3921 178.174V144.1C95.3921 141.768 96.3185 139.531 97.9674 137.882C99.6164 136.233 101.853 135.306 104.185 135.306C105.34 135.306 106.484 135.533 107.551 135.975C108.618 136.417 109.587 137.064 110.404 137.881C111.221 138.698 111.868 139.667 112.31 140.734C112.752 141.801 112.979 142.945 112.979 144.1V178.174Z" fill="url(#paint2_linear)"/>
<path d="M112.979 236.182C112.979 237.337 112.752 238.481 112.31 239.548C111.868 240.615 111.221 241.584 110.404 242.401C109.587 243.217 108.618 243.865 107.551 244.307C106.484 244.749 105.34 244.976 104.185 244.976C101.853 244.976 99.6164 244.049 97.9674 242.4C96.3185 240.751 95.3921 238.514 95.3921 236.182V202.108C95.3921 199.776 96.3185 197.539 97.9674 195.89C99.6164 194.241 101.853 193.314 104.185 193.314C105.34 193.314 106.484 193.541 107.551 193.983C108.618 194.425 109.587 195.073 110.404 195.889C111.22 196.706 111.868 197.675 112.31 198.742C112.752 199.809 112.979 200.953 112.979 202.108V236.182Z" fill="url(#paint3_linear)"/>
<path d="M419.362 178.036C419.362 179.191 419.135 180.335 418.693 181.402C418.251 182.469 417.603 183.438 416.787 184.255C415.97 185.071 415.001 185.719 413.934 186.161C412.866 186.603 411.723 186.83 410.568 186.83C408.236 186.83 405.999 185.903 404.35 184.254C402.701 182.605 401.775 180.368 401.775 178.036V143.963C401.775 141.631 402.701 139.394 404.35 137.745C405.999 136.096 408.236 135.169 410.568 135.169C411.723 135.169 412.866 135.396 413.934 135.838C415.001 136.28 415.97 136.927 416.787 137.744C417.603 138.561 418.251 139.53 418.693 140.597C419.135 141.664 419.362 142.808 419.362 143.963V178.036Z" fill="url(#paint4_linear)"/>
<path d="M415.028 594.8C415.043 601.913 413.656 608.958 410.948 615.535C408.24 622.112 404.263 628.091 399.244 633.13C394.225 638.17 388.262 642.172 381.697 644.907C375.131 647.643 368.091 649.058 360.979 649.073H153.599C146.486 649.058 139.446 647.643 132.881 644.907C126.316 642.172 120.353 638.17 115.334 633.13C110.316 628.091 106.339 622.112 103.63 615.535C100.922 608.958 99.536 601.912 99.5509 594.8V54.275C99.5359 47.1624 100.922 40.1165 103.63 33.5396C106.338 26.9626 110.315 20.9835 115.334 15.9436C120.353 10.9037 126.315 6.90169 132.881 4.16608C139.446 1.43046 146.486 0.0148238 153.599 0H360.979C368.092 0.0148239 375.132 1.43045 381.697 4.16605C388.263 6.90165 394.225 10.9037 399.244 15.9436C404.263 20.9835 408.24 26.9626 410.948 33.5395C413.656 40.1164 415.043 47.1623 415.028 54.275V594.8Z" fill="url(#paint5_linear)"/>
<path d="M413.398 592.798C413.448 607.036 407.84 620.71 397.808 630.812C387.776 640.915 374.141 646.619 359.904 646.669H154.672C140.435 646.618 126.801 640.914 116.77 630.812C106.738 620.709 101.131 607.035 101.181 592.798V56.277C101.131 42.0398 106.738 28.3657 116.769 18.2627C126.801 8.15978 140.435 2.4556 154.672 2.40503H359.904C366.954 2.42967 373.93 3.84269 380.433 6.56339C386.937 9.28408 392.841 13.2592 397.809 18.2617C402.776 23.2642 406.71 29.1961 409.384 35.7188C412.059 42.2415 413.423 49.2272 413.398 56.277V592.798Z" fill="#F5F5F5"/>
<g opacity="0.5">
<path opacity="0.5" d="M105.713 569.342H99.6299V579.465H105.713V569.342Z" fill="url(#paint6_linear)"/>
<path opacity="0.5" d="M105.713 50.7429H99.6299V60.8659H105.713V50.7429Z" fill="url(#paint7_linear)"/>
<path opacity="0.5" d="M414 569.342H407.916V579.465H414V569.342Z" fill="url(#paint8_linear)"/>
<path opacity="0.5" d="M414 50.7429H407.916V60.8659H414V50.7429Z" fill="url(#paint9_linear)"/>
</g>
<g style="mix-blend-mode:luminosity">
<path d="M375.318 12.6531H369.518C377.725 12.6825 385.583 15.9706 391.365 21.7941C397.147 27.6177 400.379 35.4996 400.35 43.7061V601.772C400.379 609.978 397.147 617.86 391.365 623.683C385.583 629.506 377.724 632.794 369.518 632.824H375.318C383.525 632.794 391.383 629.506 397.165 623.682C402.947 617.858 406.179 609.976 406.15 601.769V43.7061C406.179 35.4996 402.947 27.6177 397.165 21.7941C391.383 15.9706 383.525 12.6825 375.318 12.6531Z" fill="white"/>
</g>
<path d="M275.272 17.644C275.271 18.6881 274.856 19.6892 274.118 20.4273C273.379 21.1654 272.378 21.58 271.334 21.58C270.817 21.5801 270.305 21.4784 269.827 21.2807C269.35 21.0829 268.916 20.793 268.55 20.4275C268.185 20.062 267.895 19.6281 267.697 19.1505C267.499 18.6729 267.397 18.161 267.397 17.644C267.397 16.6 267.812 15.5989 268.55 14.8608C269.289 14.1226 270.29 13.708 271.334 13.708C272.378 13.7083 273.379 14.123 274.118 14.861C274.856 15.599 275.271 16.6 275.272 17.644Z" fill="url(#paint10_radial)"/>
<path d="M226.134 39.7701C226.134 41.2818 225.533 42.7316 224.464 43.8006C223.395 44.8695 221.946 45.4701 220.434 45.4701C218.922 45.4701 217.472 44.8695 216.403 43.8006C215.334 42.7316 214.734 41.2818 214.734 39.7701C214.734 38.2583 215.334 36.8085 216.403 35.7395C217.472 34.6706 218.922 34.0701 220.434 34.0701C221.946 34.0701 223.395 34.6706 224.464 35.7395C225.533 36.8085 226.134 38.2583 226.134 39.7701Z" fill="url(#paint11_radial)"/>
<path d="M225.018 39.77C225.018 40.3716 224.9 40.9673 224.67 41.5232C224.44 42.079 224.102 42.5841 223.677 43.0096C223.252 43.435 222.747 43.7726 222.191 44.0029C221.635 44.2333 221.04 44.3519 220.438 44.352C219.836 44.3522 219.24 44.2337 218.684 44.0035C218.128 43.7733 217.623 43.4358 217.197 43.0103C216.772 42.5848 216.434 42.0797 216.204 41.5237C215.974 40.9677 215.855 40.3718 215.855 39.77C215.855 39.1681 215.973 38.572 216.203 38.0159C216.434 37.4597 216.771 36.9544 217.197 36.5288C217.622 36.1031 218.128 35.7656 218.684 35.5353C219.24 35.3051 219.836 35.1867 220.438 35.187C221.04 35.1871 221.635 35.3058 222.191 35.5362C222.747 35.7666 223.252 36.1042 223.677 36.5298C224.103 36.9554 224.44 37.4606 224.67 38.0166C224.9 38.5725 225.018 39.1684 225.018 39.77Z" fill="url(#paint12_radial)"/>
<path d="M299.473 38.8419C299.473 39.2165 299.399 39.5873 299.255 39.9333C299.112 40.2792 298.902 40.5936 298.637 40.8583C298.372 41.1231 298.057 41.333 297.711 41.4762C297.365 41.6194 296.994 41.6931 296.62 41.6929H246.399C246.025 41.6928 245.654 41.619 245.308 41.4756C244.962 41.3323 244.648 41.1222 244.384 40.8575C244.119 40.5927 243.909 40.2785 243.766 39.9327C243.623 39.5868 243.55 39.2162 243.55 38.8419C243.55 38.0862 243.85 37.3615 244.384 36.827C244.918 36.2926 245.643 35.9922 246.399 35.9919H296.618C296.992 35.9917 297.363 36.0652 297.709 36.2083C298.055 36.3514 298.37 36.5613 298.635 36.8259C298.9 37.0906 299.11 37.4048 299.253 37.7508C299.397 38.0967 299.471 38.4675 299.471 38.8419H299.473Z" fill="url(#paint13_linear)"/>
<path d="M298.828 38.842C298.828 39.999 297.581 40.9361 296.042 40.9361H246.977C245.442 40.9361 244.193 39.999 244.193 38.842C244.193 37.685 245.442 36.748 246.977 36.748H296.042C297.581 36.748 298.828 37.685 298.828 38.842Z" fill="url(#paint14_linear)"/>
<path d="M296.818 630.539L236.244 649.454L217.402 588.654L277.976 569.74L296.818 630.539Z" fill="url(#paint15_linear)"/>
<path d="M234.32 586.275L234.109 632.704L279.894 632.912L280.106 586.484L234.32 586.275Z" fill="url(#paint16_radial)"/>
<path d="M398.688 74.99H115.515V574.355H398.688V74.99Z" fill="#020202"/>
<path d="M127.601 88.9601C127.601 89.8778 127.236 90.758 126.587 91.407C125.939 92.056 125.058 92.4208 124.141 92.4211C123.686 92.4213 123.236 92.332 122.816 92.1582C122.396 91.9844 122.014 91.7295 121.692 91.4081C121.371 91.0867 121.115 90.705 120.941 90.285C120.767 89.865 120.678 89.4147 120.678 88.9601C120.678 88.0416 121.043 87.1608 121.692 86.5114C122.341 85.8619 123.222 85.4971 124.141 85.4971C125.059 85.4976 125.939 85.8627 126.588 86.5121C127.237 87.1615 127.601 88.0421 127.601 88.9601Z" fill="white"/>
<path d="M135.341 88.9601C135.34 89.4147 135.251 89.8649 135.077 90.2848C134.902 90.7048 134.647 91.0864 134.326 91.4078C134.004 91.7292 133.623 91.9841 133.202 92.1579C132.782 92.3318 132.332 92.4212 131.878 92.4211C131.423 92.4212 130.973 92.3318 130.553 92.1579C130.133 91.984 129.751 91.7291 129.43 91.4077C129.109 91.0862 128.854 90.7047 128.68 90.2847C128.506 89.8647 128.416 89.4146 128.417 88.9601C128.416 88.5054 128.506 88.0551 128.679 87.635C128.853 87.2148 129.108 86.8331 129.429 86.5115C129.751 86.1899 130.133 85.9348 130.553 85.7607C130.973 85.5867 131.423 85.4971 131.878 85.4971C132.796 85.4973 133.677 85.8623 134.326 86.5116C134.975 87.161 135.34 88.0417 135.341 88.9601Z" fill="white"/>
<path d="M143.08 88.96C143.08 89.4148 142.991 89.8653 142.817 90.2856C142.643 90.7059 142.388 91.0879 142.067 91.4096C141.745 91.7313 141.363 91.9865 140.943 92.1606C140.523 92.3346 140.073 92.4241 139.618 92.424C139.163 92.4243 138.713 92.3349 138.293 92.1611C137.873 91.9873 137.491 91.7324 137.169 91.411C136.848 91.0896 136.592 90.708 136.418 90.2879C136.244 89.8679 136.155 89.4177 136.155 88.963C136.155 88.0446 136.52 87.1637 137.169 86.5143C137.819 85.8649 138.699 85.5 139.618 85.5C140.536 85.5003 141.416 85.8648 142.065 86.5136C142.714 87.1623 143.079 88.0423 143.08 88.96Z" fill="white"/>
<path d="M150.818 88.9601C150.818 89.4146 150.728 89.8647 150.554 90.2847C150.38 90.7047 150.126 91.0862 149.804 91.4077C149.483 91.7291 149.101 91.984 148.681 92.1579C148.261 92.3318 147.811 92.4212 147.357 92.4211C146.902 92.4212 146.452 92.3318 146.032 92.1579C145.612 91.9841 145.23 91.7292 144.908 91.4078C144.587 91.0864 144.332 90.7048 144.157 90.2848C143.983 89.8649 143.894 89.4147 143.894 88.9601C143.894 88.0417 144.259 87.161 144.908 86.5116C145.558 85.8623 146.438 85.4973 147.357 85.4971C147.811 85.4972 148.261 85.5869 148.681 85.761C149.101 85.9351 149.483 86.1902 149.804 86.5118C150.126 86.8333 150.381 87.2151 150.554 87.6351C150.728 88.0552 150.818 88.5054 150.818 88.9601Z" fill="white"/>
<path d="M158.557 88.9601C158.557 89.4147 158.467 89.8649 158.293 90.2848C158.119 90.7048 157.864 91.0864 157.542 91.4078C157.221 91.7292 156.839 91.9841 156.419 92.1579C155.999 92.3318 155.548 92.4212 155.094 92.4211C154.639 92.4212 154.189 92.3317 153.769 92.1579C153.349 91.984 152.968 91.729 152.647 91.4076C152.325 91.0862 152.07 90.7046 151.897 90.2846C151.723 89.8646 151.634 89.4146 151.634 88.9601C151.634 88.5055 151.723 88.0553 151.897 87.6352C152.07 87.2151 152.325 86.8334 152.646 86.5118C152.968 86.1902 153.349 85.9351 153.769 85.761C154.189 85.5869 154.639 85.4972 155.094 85.4971C156.012 85.4973 156.893 85.8623 157.542 86.5116C158.192 87.161 158.557 88.0417 158.557 88.9601Z" fill="white"/>
<path d="M171.079 89.6111C171.496 89.6116 171.895 89.7774 172.19 90.0721C172.485 90.3668 172.65 90.7663 172.651 91.1831C172.651 91.6004 172.486 92.0007 172.191 92.296C171.896 92.5913 171.496 92.7575 171.079 92.7581C170.872 92.7582 170.667 92.7176 170.476 92.6385C170.285 92.5594 170.111 92.4433 169.965 92.2971C169.819 92.1508 169.703 91.9771 169.624 91.786C169.544 91.5948 169.504 91.3899 169.504 91.1831C169.504 90.7658 169.671 90.3658 169.966 90.071C170.261 89.7763 170.662 89.6108 171.079 89.6111Z" fill="white"/>
<path d="M174.838 87.3919C174.815 87.3689 174.791 87.3469 174.766 87.3249L174.696 87.2579C174.684 87.246 174.671 87.2353 174.657 87.2259C173.681 86.3354 172.399 85.8557 171.078 85.8867C169.757 85.9176 168.498 86.4567 167.565 87.3919L167.337 87.6209L167.02 87.9349C166.834 88.1206 166.73 88.3724 166.73 88.6349C166.73 88.8975 166.834 89.1493 167.02 89.3349C167.111 89.4267 167.22 89.4995 167.34 89.5491C167.459 89.5988 167.587 89.6243 167.717 89.6243C167.846 89.6243 167.975 89.5988 168.094 89.5491C168.214 89.4995 168.322 89.4267 168.414 89.3349L168.958 88.7909C169.552 88.1982 170.358 87.8653 171.197 87.8653C172.037 87.8653 172.842 88.1982 173.437 88.7909L173.829 89.1719C174.013 89.3548 174.261 89.4575 174.52 89.4575C174.78 89.4575 175.028 89.3548 175.212 89.1719C175.304 89.0819 175.377 88.9744 175.426 88.8557C175.475 88.737 175.501 88.6095 175.5 88.4809C175.501 88.3528 175.476 88.2258 175.427 88.1073C175.379 87.9889 175.307 87.8813 175.216 87.7909L174.838 87.3919Z" fill="white"/>
<path d="M177.518 85.447L177.193 85.12H177.188L176.929 84.861C176.885 84.8162 176.837 84.7766 176.784 84.743C175.171 83.332 173.087 82.5766 170.945 82.6261C168.802 82.6755 166.756 83.5261 165.21 85.01C165.195 85.024 165.177 85.034 165.161 85.049L164.57 85.64C164.402 85.8087 164.307 86.0373 164.307 86.2755C164.307 86.5138 164.402 86.7423 164.57 86.911C164.738 87.0787 164.967 87.1728 165.204 87.1728C165.442 87.1728 165.67 87.0787 165.839 86.911L166.43 86.322L166.442 86.308C167.693 85.1021 169.361 84.4242 171.099 84.4149C172.837 84.4056 174.512 85.0656 175.777 86.258L176.243 86.722C176.326 86.8056 176.425 86.8719 176.534 86.9172C176.642 86.9624 176.759 86.9857 176.877 86.9857C176.995 86.9857 177.111 86.9624 177.22 86.9172C177.329 86.8719 177.428 86.8056 177.511 86.722C177.595 86.6389 177.662 86.5399 177.708 86.4307C177.754 86.3216 177.778 86.2044 177.779 86.086C177.78 85.9675 177.757 85.8501 177.712 85.7405C177.667 85.6308 177.601 85.5311 177.518 85.447Z" fill="white"/>
<path d="M341.717 92.73H340.745V86.2868L338.796 87.0027V86.1248L341.566 85.0849H341.717V92.73ZM349.32 89.4849C349.32 90.6171 349.127 91.4584 348.74 92.0088C348.354 92.5593 347.749 92.8345 346.927 92.8345C346.115 92.8345 345.514 92.5662 345.124 92.0298C344.734 91.4898 344.532 90.685 344.518 89.6155V88.3248C344.518 87.2065 344.711 86.3757 345.098 85.8322C345.485 85.2887 346.091 85.017 346.917 85.017C347.735 85.017 348.338 85.28 348.725 85.8061C349.111 86.3286 349.31 87.1369 349.32 88.2308V89.4849ZM348.354 88.1628C348.354 87.3441 348.239 86.7484 348.009 86.3757C347.779 85.9994 347.415 85.8113 346.917 85.8113C346.422 85.8113 346.061 85.9977 345.835 86.3704C345.608 86.7432 345.492 87.3163 345.485 88.0897V89.6364C345.485 90.4586 345.603 91.0665 345.84 91.4602C346.081 91.8503 346.443 92.0454 346.927 92.0454C347.404 92.0454 347.758 91.8608 347.988 91.4915C348.221 91.1222 348.343 90.5405 348.354 89.7462V88.1628ZM355.33 89.4849C355.33 90.6171 355.136 91.4584 354.75 92.0088C354.363 92.5593 353.759 92.8345 352.936 92.8345C352.125 92.8345 351.524 92.5662 351.134 92.0298C350.743 91.4898 350.541 90.685 350.528 89.6155V88.3248C350.528 87.2065 350.721 86.3757 351.108 85.8322C351.494 85.2887 352.1 85.017 352.926 85.017C353.745 85.017 354.347 85.28 354.734 85.8061C355.121 86.3286 355.319 87.1369 355.33 88.2308V89.4849ZM354.363 88.1628C354.363 87.3441 354.248 86.7484 354.018 86.3757C353.788 85.9994 353.424 85.8113 352.926 85.8113C352.431 85.8113 352.071 85.9977 351.844 86.3704C351.618 86.7432 351.501 87.3163 351.494 88.0897V89.6364C351.494 90.4586 351.613 91.0665 351.85 91.4602C352.09 91.8503 352.452 92.0454 352.936 92.0454C353.414 92.0454 353.767 91.8608 353.997 91.4915C354.231 91.1222 354.353 90.5405 354.363 89.7462V88.1628ZM356.485 86.5847C356.485 86.1283 356.629 85.7521 356.918 85.456C357.211 85.1598 357.586 85.0118 358.042 85.0118C358.505 85.0118 358.88 85.1616 359.165 85.4612C359.455 85.7573 359.599 86.1423 359.599 86.616V86.9871C359.599 87.4469 359.453 87.8232 359.16 88.1158C358.871 88.4049 358.502 88.5495 358.052 88.5495C357.599 88.5495 357.225 88.4049 356.929 88.1158C356.633 87.8232 356.485 87.4347 356.485 86.9505V86.5847ZM357.206 86.9871C357.206 87.2588 357.282 87.4835 357.436 87.6612C357.589 87.8353 357.795 87.9224 358.052 87.9224C358.3 87.9224 358.498 87.8371 358.648 87.6664C358.801 87.4957 358.878 87.2623 358.878 86.9662V86.5847C358.878 86.313 358.803 86.0883 358.653 85.9106C358.503 85.7329 358.3 85.6441 358.042 85.6441C357.784 85.6441 357.58 85.7329 357.431 85.9106C357.281 86.0883 357.206 86.3199 357.206 86.6056V86.9871ZM360.19 90.8644C360.19 90.4081 360.334 90.0336 360.623 89.7409C360.916 89.4448 361.29 89.2968 361.747 89.2968C362.203 89.2968 362.578 89.4431 362.87 89.7357C363.163 90.0284 363.309 90.4168 363.309 90.901V91.272C363.309 91.7284 363.163 92.1047 362.87 92.4008C362.581 92.6934 362.21 92.8397 361.757 92.8397C361.304 92.8397 360.93 92.6951 360.634 92.406C360.338 92.1134 360.19 91.7249 360.19 91.2407V90.8644ZM360.911 91.272C360.911 91.5473 360.987 91.7737 361.141 91.9514C361.294 92.1256 361.499 92.2126 361.757 92.2126C362.008 92.2126 362.208 92.1273 362.358 91.9566C362.508 91.7824 362.583 91.5473 362.583 91.2511V90.8644C362.583 90.5892 362.506 90.3645 362.353 90.1903C362.203 90.0162 362.001 89.9291 361.747 89.9291C361.499 89.9291 361.297 90.0162 361.141 90.1903C360.987 90.361 360.911 90.5927 360.911 90.8853V91.272ZM358.272 92.1552L357.723 91.8103L361.439 85.8636L361.987 86.2084L358.272 92.1552Z" fill="white"/>
<path d="M371.798 94.7589C371.676 94.7643 371.554 94.7455 371.439 94.7036C371.324 94.6617 371.219 94.5975 371.129 94.5147C371.038 94.4319 370.966 94.3322 370.914 94.2212C370.863 94.1102 370.833 93.9902 370.828 93.8679L370.813 86.8819C370.826 86.6364 370.935 86.4056 371.115 86.2388C371.296 86.072 371.535 85.9823 371.78 85.9889L387.998 85.9619C388.245 85.9539 388.485 86.0424 388.668 86.2086C388.85 86.3748 388.96 86.6056 388.975 86.8519V88.2969L390.227 88.2899L390.238 92.4089L388.981 92.4139L388.986 93.8419C388.975 94.0885 388.867 94.3205 388.685 94.4872C388.503 94.654 388.262 94.742 388.015 94.7319L371.798 94.7589ZM388.298 86.5929L371.488 86.6209L371.498 94.1319L388.307 94.1049L388.298 86.5929ZM372.143 87.3179L384.37 87.2969L384.379 93.4099L372.149 93.4249L372.143 87.3179Z" fill="#F8F8F6"/>
<g style="mix-blend-mode:soft-light">
<path d="M271.834 561.085C271.834 561.939 271.494 562.758 270.89 563.362C270.286 563.966 269.467 564.305 268.613 564.305H242.853C242.43 564.305 242.011 564.222 241.62 564.06C241.23 563.898 240.875 563.661 240.576 563.362C240.277 563.063 240.039 562.708 239.878 562.317C239.716 561.927 239.633 561.508 239.633 561.085C239.633 560.662 239.716 560.243 239.877 559.852C240.039 559.461 240.276 559.106 240.575 558.807C240.874 558.508 241.229 558.271 241.62 558.109C242.011 557.947 242.43 557.864 242.853 557.864H268.613C269.467 557.864 270.286 558.204 270.89 558.808C271.494 559.412 271.834 560.231 271.834 561.085Z" fill="white"/>
</g>
<path style="mix-blend-mode:multiply" opacity="0.3" d="M399.492 73.085H114.61V575.554H399.492V73.085Z" fill="url(#paint17_linear)"/>
<defs>
<radialGradient id="paint0_radial" cx="0" cy="0" r="1" gradientUnits="userSpaceOnUse" gradientTransform="translate(-74.686 305.373) rotate(-29.6831) scale(288.795 21.9707)">
<stop stop-color="#272425"/>
<stop offset="0.038" stop-color="#28254B" stop-opacity="0.957"/>
<stop offset="1" stop-color="#717274" stop-opacity="0"/>
</radialGradient>
<linearGradient id="paint1_linear" x1="99.235" y1="81.3368" x2="99.235" y2="106.737" gradientUnits="userSpaceOnUse">
<stop stop-color="#B4B5B6"/>
<stop offset="0.045" stop-color="#B8B9BA"/>
<stop offset="0.093" stop-color="#C5C5C6"/>
<stop offset="0.142" stop-color="#DADADB"/>
<stop offset="0.167" stop-color="#E8E8E9"/>
<stop offset="0.239" stop-color="#EAEAEB"/>
<stop offset="0.256" stop-color="#EDEDEE"/>
<stop offset="0.279" stop-color="#EBEBEC"/>
<stop offset="0.287" stop-color="#E4E4E5"/>
<stop offset="0.293" stop-color="#D8D9DA"/>
<stop offset="0.297" stop-color="#C7C9CB"/>
<stop offset="0.3" stop-color="#BCBEC0"/>
<stop offset="0.499" stop-color="#919294"/>
<stop offset="0.555" stop-color="#858687"/>
<stop offset="0.607" stop-color="#898A8B"/>
<stop offset="0.66" stop-color="#959697"/>
<stop offset="0.714" stop-color="#AAAAAB"/>
<stop offset="0.768" stop-color="#C6C7C8"/>
<stop offset="0.808" stop-color="#E2E2E3"/>
<stop offset="0.811" stop-color="#E4E4E5"/>
<stop offset="0.825" stop-color="#F2F2F2"/>
<stop offset="0.844" stop-color="#F9F9F9"/>
<stop offset="0.88" stop-color="#FCFCFC"/>
<stop offset="0.889" stop-color="#EDEDED"/>
<stop offset="0.905" stop-color="#DBDBDC"/>
<stop offset="0.923" stop-color="#CECFD0"/>
<stop offset="0.947" stop-color="#C7C8C9"/>
<stop offset="1" stop-color="#C5C6C7"/>
</linearGradient>
<linearGradient id="paint2_linear" x1="104.186" y1="138.147" x2="104.186" y2="184.953" gradientUnits="userSpaceOnUse">
<stop stop-color="#B4B5B6"/>
<stop offset="0.045" stop-color="#B8B9BA"/>
<stop offset="0.093" stop-color="#C5C5C6"/>
<stop offset="0.142" stop-color="#DADADB"/>
<stop offset="0.167" stop-color="#E8E8E9"/>
<stop offset="0.239" stop-color="#EAEAEB"/>
<stop offset="0.256" stop-color="#EDEDEE"/>
<stop offset="0.279" stop-color="#EBEBEC"/>
<stop offset="0.287" stop-color="#E4E4E5"/>
<stop offset="0.293" stop-color="#D8D9DA"/>
<stop offset="0.297" stop-color="#C7C9CB"/>
<stop offset="0.3" stop-color="#BCBEC0"/>
<stop offset="0.499" stop-color="#919294"/>
<stop offset="0.555" stop-color="#858687"/>
<stop offset="0.607" stop-color="#898A8B"/>
<stop offset="0.66" stop-color="#959697"/>
<stop offset="0.714" stop-color="#AAAAAB"/>
<stop offset="0.768" stop-color="#C6C7C8"/>
<stop offset="0.808" stop-color="#E2E2E3"/>
<stop offset="0.811" stop-color="#E4E4E5"/>
<stop offset="0.825" stop-color="#F2F2F2"/>
<stop offset="0.844" stop-color="#F9F9F9"/>
<stop offset="0.88" stop-color="#FCFCFC"/>
<stop offset="0.889" stop-color="#EDEDED"/>
<stop offset="0.905" stop-color="#DBDBDC"/>
<stop offset="0.923" stop-color="#CECFD0"/>
<stop offset="0.947" stop-color="#C7C8C9"/>
<stop offset="1" stop-color="#C5C6C7"/>
</linearGradient>
<linearGradient id="paint3_linear" x1="104.186" y1="196.155" x2="104.186" y2="242.961" gradientUnits="userSpaceOnUse">
<stop stop-color="#B4B5B6"/>
<stop offset="0.045" stop-color="#B8B9BA"/>
<stop offset="0.093" stop-color="#C5C5C6"/>
<stop offset="0.142" stop-color="#DADADB"/>
<stop offset="0.167" stop-color="#E8E8E9"/>
<stop offset="0.239" stop-color="#EAEAEB"/>
<stop offset="0.256" stop-color="#EDEDEE"/>
<stop offset="0.279" stop-color="#EBEBEC"/>
<stop offset="0.287" stop-color="#E4E4E5"/>
<stop offset="0.293" stop-color="#D8D9DA"/>
<stop offset="0.297" stop-color="#C7C9CB"/>
<stop offset="0.3" stop-color="#BCBEC0"/>
<stop offset="0.499" stop-color="#919294"/>
<stop offset="0.555" stop-color="#858687"/>
<stop offset="0.607" stop-color="#898A8B"/>
<stop offset="0.66" stop-color="#959697"/>
<stop offset="0.714" stop-color="#AAAAAB"/>
<stop offset="0.768" stop-color="#C6C7C8"/>
<stop offset="0.808" stop-color="#E2E2E3"/>
<stop offset="0.811" stop-color="#E4E4E5"/>
<stop offset="0.825" stop-color="#F2F2F2"/>
<stop offset="0.844" stop-color="#F9F9F9"/>
<stop offset="0.88" stop-color="#FCFCFC"/>
<stop offset="0.889" stop-color="#EDEDED"/>
<stop offset="0.905" stop-color="#DBDBDC"/>
<stop offset="0.923" stop-color="#CECFD0"/>
<stop offset="0.947" stop-color="#C7C8C9"/>
<stop offset="1" stop-color="#C5C6C7"/>
</linearGradient>
<linearGradient id="paint4_linear" x1="410.568" y1="138.01" x2="410.568" y2="184.764" gradientUnits="userSpaceOnUse">
<stop stop-color="#B4B5B6"/>
<stop offset="0.045" stop-color="#B8B9BA"/>
<stop offset="0.093" stop-color="#C5C5C6"/>
<stop offset="0.142" stop-color="#DADADB"/>
<stop offset="0.167" stop-color="#E8E8E9"/>
<stop offset="0.239" stop-color="#EAEAEB"/>
<stop offset="0.256" stop-color="#EDEDEE"/>
<stop offset="0.279" stop-color="#EBEBEC"/>
<stop offset="0.287" stop-color="#E4E4E5"/>
<stop offset="0.293" stop-color="#D8D9DA"/>
<stop offset="0.297" stop-color="#C7C9CB"/>
<stop offset="0.3" stop-color="#BCBEC0"/>
<stop offset="0.499" stop-color="#919294"/>
<stop offset="0.555" stop-color="#858687"/>
<stop offset="0.607" stop-color="#898A8B"/>
<stop offset="0.66" stop-color="#959697"/>
<stop offset="0.714" stop-color="#AAAAAB"/>
<stop offset="0.768" stop-color="#C6C7C8"/>
<stop offset="0.808" stop-color="#E2E2E3"/>
<stop offset="0.811" stop-color="#E4E4E5"/>
<stop offset="0.825" stop-color="#F2F2F2"/>
<stop offset="0.844" stop-color="#F9F9F9"/>
<stop offset="0.88" stop-color="#FCFCFC"/>
<stop offset="0.889" stop-color="#EDEDED"/>
<stop offset="0.905" stop-color="#DBDBDC"/>
<stop offset="0.923" stop-color="#CECFD0"/>
<stop offset="0.947" stop-color="#C7C8C9"/>
<stop offset="1" stop-color="#C5C6C7"/>
</linearGradient>
<linearGradient id="paint5_linear" x1="-56.295" y1="26.612" x2="810.481" y2="221.054" gradientUnits="userSpaceOnUse">
<stop stop-color="#403E3F"/>
<stop offset="0.134" stop-color="#D1D2D4"/>
<stop offset="0.301" stop-color="#5C5A5E"/>
<stop offset="0.419" stop-color="white"/>
<stop offset="0.532" stop-color="#524D4E"/>
<stop offset="0.634" stop-color="white"/>
<stop offset="0.742" stop-color="#4E4F4F"/>
<stop offset="1" stop-color="#272425"/>
</linearGradient>
<linearGradient id="paint6_linear" x1="99.6299" y1="574.403" x2="105.713" y2="574.403" gradientUnits="userSpaceOnUse">
<stop stop-color="#6B6B6B"/>
<stop offset="0.683" stop-color="#D4D4D4" stop-opacity="0.286"/>
<stop offset="1" stop-color="white" stop-opacity="0"/>
</linearGradient>
<linearGradient id="paint7_linear" x1="99.6299" y1="55.8044" x2="105.713" y2="55.8044" gradientUnits="userSpaceOnUse">
<stop stop-color="#6B6B6B"/>
<stop offset="0.683" stop-color="#D4D4D4" stop-opacity="0.286"/>
<stop offset="1" stop-color="white" stop-opacity="0"/>
</linearGradient>
<linearGradient id="paint8_linear" x1="1039.36" y1="574.403" x2="1045.44" y2="574.403" gradientUnits="userSpaceOnUse">
<stop stop-color="#6B6B6B"/>
<stop offset="0.683" stop-color="#D4D4D4" stop-opacity="0.286"/>
<stop offset="1" stop-color="white" stop-opacity="0"/>
</linearGradient>
<linearGradient id="paint9_linear" x1="1039.36" y1="55.8044" x2="1045.44" y2="55.8044" gradientUnits="userSpaceOnUse">
<stop stop-color="#6B6B6B"/>
<stop offset="0.683" stop-color="#D4D4D4" stop-opacity="0.286"/>
<stop offset="1" stop-color="white" stop-opacity="0"/>
</linearGradient>
<radialGradient id="paint10_radial" cx="0" cy="0" r="1" gradientUnits="userSpaceOnUse" gradientTransform="translate(271.334 17.644) scale(3.9375 3.936)">
<stop stop-color="#363636"/>
<stop offset="1" stop-color="#000100"/>
</radialGradient>
<radialGradient id="paint11_radial" cx="0" cy="0" r="1" gradientUnits="userSpaceOnUse" gradientTransform="translate(220.434 39.7701) scale(5.7)">
<stop stop-color="#124492"/>
<stop offset="1" stop-color="#000100"/>
</radialGradient>
<radialGradient id="paint12_radial" cx="0" cy="0" r="1" gradientUnits="userSpaceOnUse" gradientTransform="translate(220.436 39.7695) scale(4.5815 4.5825)">
<stop stop-color="#124492"/>
<stop offset="0.129" stop-color="#11408B"/>
<stop offset="0.315" stop-color="#0E3877"/>
<stop offset="0.535" stop-color="#0A2958"/>
<stop offset="0.781" stop-color="#05152C"/>
<stop offset="1" stop-color="#000100"/>
</radialGradient>
<linearGradient id="paint13_linear" x1="271.511" y1="36.3055" x2="271.511" y2="41.4706" gradientUnits="userSpaceOnUse">
<stop stop-color="#BCBEC0"/>
<stop offset="0.012" stop-color="#BEC0C2"/>
<stop offset="0.138" stop-color="#DADBDD"/>
<stop offset="0.264" stop-color="#EEEFEF"/>
<stop offset="0.391" stop-color="#FAFBFB"/>
<stop offset="0.518" stop-color="white"/>
<stop offset="0.628" stop-color="#FAFAFA"/>
<stop offset="0.753" stop-color="#ECEDED"/>
<stop offset="0.886" stop-color="#D5D6D8"/>
<stop offset="1" stop-color="#BCBEC0"/>
</linearGradient>
<linearGradient id="paint14_linear" x1="271.51" y1="36.9784" x2="271.51" y2="40.7727" gradientUnits="userSpaceOnUse">
<stop stop-color="#959597"/>
<stop offset="0.826" stop-color="#373435"/>
<stop offset="1" stop-color="#231F20"/>
</linearGradient>
<linearGradient id="paint15_linear" x1="-128.773" y1="909.082" x2="-127.661" y2="909.082" gradientUnits="userSpaceOnUse">
<stop stop-color="#555657"/>
<stop offset="0.342" stop-color="#EDEDE8"/>
<stop offset="0.66" stop-color="#EBEBE5"/>
<stop offset="0.908" stop-color="#5A5B5C"/>
<stop offset="0.939" stop-color="#626364"/>
<stop offset="0.987" stop-color="#78797A"/>
<stop offset="1" stop-color="#7F8182"/>
</linearGradient>
<radialGradient id="paint16_radial" cx="0" cy="0" r="1" gradientUnits="userSpaceOnUse" gradientTransform="translate(271.953 624.576) rotate(0.261) scale(23.2145 22.893)">
<stop stop-color="#FAFDFC"/>
<stop offset="0.08" stop-color="#FAFDFC"/>
<stop offset="1" stop-color="#FCFFFF"/>
</radialGradient>
<linearGradient id="paint17_linear" x1="88.9705" y1="492.144" x2="524.023" y2="352.274" gradientUnits="userSpaceOnUse">
<stop/>
<stop offset="0.172" stop-color="#333333"/>
<stop offset="0.476" stop-color="#898989"/>
<stop offset="0.725" stop-color="#C9C9C9"/>
<stop offset="0.906" stop-color="#F0F0F0"/>
<stop offset="1" stop-color="white"/>
</linearGradient>
</defs>
</svg>
