<svg width="688" height="546" viewBox="0 0 688 546" fill="none" xmlns="http://www.w3.org/2000/svg">
<path d="M494.464 47.464C493.171 41.8775 490.335 36.7662 486.28 32.7115C482.225 28.6567 477.114 25.8214 471.527 24.528C466.949 23.4518 462.187 23.426 457.598 24.4525C453.008 25.4789 448.711 27.5311 445.027 30.455C441.381 33.3483 438.437 37.0301 436.417 41.224C434.397 45.4179 433.353 50.015 433.364 54.67C433.364 56.352 434.033 57.9652 435.222 59.1545C436.411 60.3439 438.024 61.012 439.706 61.012C441.388 61.012 443.001 60.3439 444.191 59.1545C445.38 57.9652 446.048 56.352 446.048 54.67C446.051 51.8964 446.684 49.1595 447.898 46.666C449.113 44.1725 450.878 41.9875 453.061 40.2757C455.243 38.564 457.786 37.3703 460.497 36.7846C463.208 36.199 466.017 36.2368 468.711 36.895C471.973 37.6499 474.957 39.3051 477.324 41.6723C479.691 44.0395 481.346 47.0236 482.101 50.285C482.842 53.3043 482.801 56.4625 481.982 59.4614C481.163 62.4603 479.592 65.2009 477.419 67.424C464.885 80.286 457.983 96.443 457.983 112.918V117.209C457.983 118.891 458.652 120.504 459.841 121.694C461.03 122.883 462.643 123.551 464.325 123.551C466.007 123.551 467.62 122.883 468.81 121.694C469.999 120.504 470.667 118.891 470.667 117.209V112.916C470.667 99.767 476.29 86.754 486.503 76.274C490.139 72.5239 492.773 67.9201 494.164 62.8859C495.555 57.8517 495.658 52.5486 494.464 47.464ZM465.284 129.641C463.942 129.641 462.631 130.039 461.515 130.785C460.399 131.53 459.529 132.59 459.016 133.83C458.502 135.069 458.368 136.434 458.63 137.75C458.892 139.066 459.538 140.275 460.487 141.224C461.436 142.173 462.644 142.819 463.961 143.081C465.277 143.342 466.641 143.208 467.881 142.695C469.121 142.181 470.18 141.311 470.926 140.196C471.671 139.08 472.069 137.768 472.069 136.426C472.069 134.627 471.354 132.901 470.082 131.628C468.81 130.356 467.084 129.641 465.284 129.641Z" fill="#EC827D"/>
<g style="mix-blend-mode:multiply">
<g style="mix-blend-mode:multiply">
<path d="M464.326 123.551C465.801 123.545 467.227 123.022 468.354 122.071C466.726 122.001 465.188 121.306 464.06 120.129C462.932 118.953 462.301 117.388 462.299 115.758V111.467C462.299 94.9911 469.199 78.834 481.735 65.967C483.908 63.7439 485.479 61.0033 486.298 58.0044C487.117 55.0055 487.158 51.8472 486.417 48.828C485.662 45.5668 484.007 42.583 481.639 40.2159C479.272 37.8488 476.289 36.1935 473.027 35.438C468.88 34.4405 464.515 34.9068 460.672 36.758C463.331 36.2313 466.072 36.2762 468.712 36.89C471.974 37.6449 474.958 39.3001 477.325 41.6673C479.692 44.0345 481.348 47.0186 482.102 50.28C482.843 53.2993 482.802 56.4575 481.983 59.4564C481.164 62.4553 479.593 65.1959 477.42 67.419C464.886 80.281 457.984 96.438 457.984 112.913V117.204C457.984 118.037 458.147 118.863 458.465 119.633C458.784 120.403 459.251 121.103 459.84 121.692C460.429 122.282 461.128 122.749 461.898 123.068C462.668 123.387 463.493 123.551 464.326 123.551Z" fill="#F1F2F2"/>
</g>
<g style="mix-blend-mode:multiply">
<path d="M437.679 53.2191C437.675 47.1346 439.466 41.1841 442.828 36.1128C446.19 31.0415 450.973 27.075 456.579 24.7101C449.933 26.4173 444.043 30.2885 439.84 35.7133C435.637 41.138 433.359 47.8076 433.366 54.6701C433.36 55.8745 433.698 57.0557 434.342 58.0739C434.985 59.0921 435.907 59.9048 436.997 60.4159C438.088 60.9271 439.302 61.1153 440.496 60.9583C441.691 60.8013 442.815 60.3057 443.736 59.5301C442.108 59.461 440.569 58.7662 439.441 57.5904C438.313 56.4147 437.681 54.8487 437.679 53.2191Z" fill="#F1F2F2"/>
</g>
<g style="mix-blend-mode:multiply">
<path d="M462.814 134.973C462.817 133.946 463.055 132.933 463.508 132.011C463.962 131.09 464.62 130.284 465.432 129.655C465.381 129.655 465.332 129.641 465.284 129.641C464.199 129.633 463.128 129.886 462.161 130.377C461.194 130.869 460.359 131.585 459.726 132.466C459.092 133.347 458.68 134.367 458.522 135.441C458.365 136.514 458.467 137.61 458.82 138.636C459.173 139.661 459.768 140.588 460.553 141.336C461.338 142.085 462.291 142.635 463.333 142.939C464.374 143.243 465.474 143.293 466.538 143.085C467.603 142.876 468.602 142.415 469.452 141.741C467.681 141.705 465.994 140.976 464.753 139.711C463.512 138.446 462.816 136.745 462.814 134.973Z" fill="#F1F2F2"/>
</g>
</g>
<path d="M336.705 536.189C337.565 535.654 338.575 535.408 339.585 535.489L345.413 534.916L340.081 526.909L340.981 493.004H319.77C320.537 521.13 320.999 529.035 321.205 536.595H321.223L328.475 538.362C329.123 538.521 329.796 538.55 330.455 538.447C331.114 538.344 331.747 538.111 332.315 537.762L336.705 536.189Z" fill="#FFC8AF"/>
<path d="M321.223 536.592H321.205C321.305 539.799 321.36 542.918 321.36 545.992H349.598C349.823 545.993 350.047 545.949 350.255 545.863C350.463 545.777 350.652 545.651 350.812 545.492C350.971 545.333 351.097 545.143 351.183 544.935C351.269 544.727 351.313 544.503 351.312 544.278C351.316 543.941 351.214 543.612 351.02 543.336L345.413 534.918H338.826C337.816 534.836 336.806 535.082 335.946 535.618L332.315 537.761C331.747 538.11 331.115 538.343 330.455 538.446C329.796 538.549 329.123 538.52 328.475 538.361L321.223 536.592Z" fill="#56548C"/>
<path d="M379.057 534.913L396.767 538.238C398.313 538.526 399.91 538.366 401.368 537.777C402.826 537.188 404.085 536.194 404.997 534.913L405.015 534.895L396.665 528.346C397.178 522.911 398.373 496.424 398.373 496.424H377.778L379.057 534.913Z" fill="#FFC8AF"/>
<path d="M379.057 534.913L379.194 544.223L379.212 545.988H414.152C414.509 545.987 414.857 545.875 415.147 545.668C415.438 545.46 415.657 545.168 415.774 544.831C415.89 544.493 415.9 544.128 415.8 543.785C415.7 543.443 415.496 543.14 415.216 542.918L405.013 534.895L404.995 534.913C404.083 536.194 402.824 537.188 401.366 537.777C399.907 538.366 398.311 538.526 396.765 538.238L379.057 534.913Z" fill="#56548C"/>
<path d="M309.132 252.463L299.4 259.715C298.816 260.596 298.425 261.59 298.251 262.633C298.078 263.675 298.127 264.743 298.394 265.765C299.179 269.603 302.594 273.242 302.594 273.242C302.594 273.242 295.217 273.403 295.378 275.492C295.537 277.624 305.199 280.061 312.495 279.439C313.446 272.362 314.889 265.36 316.813 258.484L309.132 252.463Z" fill="#FFC8AF"/>
<path d="M458.871 164.938C458.871 164.938 435.913 243.908 421.733 242.817C421.511 242.797 421.291 242.764 421.073 242.717C409.273 241.043 399.738 218.517 394.691 203.575C395.097 201.061 395.639 198.571 396.314 196.115C401.314 178.029 404.735 168.059 396.314 151.215L409.707 142.915L409.733 142.89L423.787 209.99C423.787 209.99 448.217 156.008 451.008 152.836C455.194 148.017 461.486 150.103 465.876 148.987C470.239 147.82 480.915 143.248 483.224 146.267C485.913 149.794 458.871 164.938 458.871 164.938Z" fill="#FFC8AF"/>
<path d="M409.733 142.894L396.314 151.215C404.735 168.059 401.314 178.029 396.314 196.115C395.639 198.571 395.097 201.061 394.691 203.575C393.086 213.379 392.838 223.357 393.955 233.228H325.335L309.635 164.558L295.277 174.121L294.11 172.121L293.045 170.321L279.645 147.414L278.605 145.614C287.709 136.628 297.993 128.922 309.174 122.707C318.94 117.407 330.228 113.169 341.746 112.788C342.684 116.036 344.652 118.891 347.354 120.922C350.056 122.954 353.345 124.053 356.725 124.053C360.106 124.053 363.395 122.954 366.097 120.922C368.799 118.891 370.767 116.036 371.705 112.788C387.687 113.169 397.805 119.688 403.998 126.335C407.958 130.518 410.976 135.5 412.851 140.947L409.733 142.894Z" fill="#FBD15B"/>
<path d="M410.723 315.522C410.723 356.722 402.758 440.965 400.6 500.097H376.4L366.4 300.511H356.129L342.865 500.097H318.637C316.507 440.964 308.516 356.719 308.516 315.522C308.526 306.035 309.178 296.56 310.469 287.161C311.766 277.693 313.681 268.321 316.202 259.103C318.525 250.24 321.58 241.586 325.334 233.228H393.953C393.953 233.228 410.723 267.932 410.723 315.522Z" fill="#56548C"/>
<path d="M404.653 121.418C404.665 123.078 404.447 124.732 404.006 126.333C397.817 119.675 387.694 113.172 371.718 112.771C369.395 109.955 369.149 105.241 369.149 105.241C378.591 105.308 384.483 101.023 384.499 101.554C397.414 74.896 384.499 50.742 384.499 50.742C384.499 50.742 383.45 60.997 370.468 67.942C363.362 71.742 361.082 80.478 361.082 80.478C361.082 80.478 359.138 72.323 353.682 72.792C348.252 73.238 350.062 84.411 350.062 84.411L354.13 89.711C356.252 107.23 341.751 112.771 341.751 112.771C330.22 113.171 318.936 117.395 309.172 122.691C309.423 118.35 310.99 114.189 313.663 110.76C317.171 106.515 320.077 107.006 322.378 103.029C326.042 96.682 315.248 91.603 317.931 83.917C320.388 76.856 323.846 76.725 327.531 69.575C332.066 60.749 327.714 56.499 330.508 47.853C334.061 36.927 354.82 30.231 368.114 30.677C384.314 31.213 399.914 43.168 401.027 54.63C401.564 60.35 398.212 62.921 399.821 70.361C401.564 78.561 406.434 79.074 406.837 85.354C407.373 93.935 398.524 95.879 398.837 104.727C399.087 111.608 404.584 113.44 404.653 121.418Z" fill="#606BF1"/>
<path d="M263.691 209.789C263.099 209.233 262.623 208.566 262.291 207.825C261.959 207.084 261.777 206.285 261.756 205.474C261.735 204.662 261.875 203.854 262.168 203.097C262.461 202.34 262.901 201.649 263.463 201.063L293.042 170.317L279.672 147.461C279.657 147.448 279.648 147.43 279.646 147.41C269.546 157.836 233.071 196.471 235.583 207.71C238.551 220.773 298.874 261.615 298.874 261.615L309.131 252.463L263.691 209.789Z" fill="#FFC8AF"/>
<path d="M384.493 101.545C384.493 101.545 384.442 102.154 382.793 102.915L382.767 102.941C381.118 103.727 377.846 104.716 371.453 105.427C371.453 105.427 371.225 111.059 371.707 112.783C370.769 116.031 368.801 118.886 366.099 120.917C363.397 122.949 360.108 124.048 356.728 124.048C353.347 124.048 350.058 122.949 347.356 120.917C344.655 118.886 342.686 116.031 341.748 112.783C345.26 111.233 348.282 108.753 350.486 105.61C352.69 102.466 353.993 98.7802 354.253 94.9501V94.9251C354.386 93.1919 354.344 91.4498 354.127 89.7251C354.127 89.7251 351.083 89.3691 350.067 84.4251C349.434 81.4321 348.241 73.2391 353.695 72.8061C359.125 72.3241 361.078 80.4921 361.078 80.4921C361.078 80.4921 363.36 71.7411 370.464 67.9611C383.451 61.0101 384.492 50.7361 384.492 50.7361C384.492 50.7361 397.401 74.9081 384.493 101.545Z" fill="#FFC8AF"/>
<path d="M358.009 89.724C357.078 91.6679 355.806 93.4291 354.254 94.924C354.387 93.1908 354.344 91.4487 354.128 89.724C355.405 90.018 356.732 90.018 358.009 89.724Z" fill="#EDB29A"/>
<path d="M371.707 112.782C368.028 112.174 365.493 104.437 365.493 104.437C371.295 104.915 377.136 104.408 382.768 102.937C381.119 103.723 377.847 104.712 371.454 105.423C371.455 105.426 371.226 111.058 371.707 112.782Z" fill="#EDB29A"/>
<path d="M293.042 170.317L263.463 201.06C262.873 201.663 262.416 202.383 262.123 203.174C261.831 203.965 261.708 204.809 261.763 205.651C261.002 204.281 260.647 202.835 261.281 201.642C263.209 198.065 288.525 171.277 288.681 170.242C288.832 169.228 280.207 148.73 279.674 147.463L293.042 170.317Z" fill="#EDB29A"/>
<path d="M421.073 242.717C409.273 241.043 399.738 218.517 394.691 203.575C395.097 201.061 395.639 198.571 396.314 196.115C401.314 178.029 404.735 168.059 396.314 151.215L409.707 142.915C409.123 143.422 400.016 151.515 399.586 152.378C399.13 153.266 401.97 159.658 402.858 175.157C403.721 190.305 405.877 225.998 421.073 242.717Z" fill="#EDB29A"/>
<g style="mix-blend-mode:multiply">
<path d="M336.472 215.878C336.757 221.658 336.748 227.45 336.446 233.229C335.924 243.977 333.9 254.6 330.434 264.787C323.508 284.422 319.934 339.368 323.965 378.206C326.907 406.643 327.086 468.795 326.958 500.097H318.635C316.505 440.964 308.514 356.719 308.514 315.522C308.524 306.035 309.177 296.56 310.467 287.161C311.764 277.693 313.679 268.321 316.2 259.103C318.525 250.241 321.58 241.586 325.335 233.229L309.635 164.559L295.277 174.122L294.11 172.122L316.21 153.58C316.21 153.58 323.74 176.721 327.317 182.38C330.894 188.039 345.735 194.24 345.735 194.24C345.735 194.24 336.014 206.034 336.472 215.878Z" fill="#F1F2F2"/>
</g>
<path d="M671.516 177.856L642.063 168.893C640.188 172.66 637.324 178.335 632.498 177.821C632.296 177.789 632.106 177.704 631.949 177.574C626.309 173.366 615.119 116.263 612.078 100.21C616.308 101.836 620.983 101.887 625.248 100.352C629.077 99.197 632.294 96.5723 634.194 93.0521H656.007C673.156 94.1671 681.269 96.8191 685.213 105.922C690.821 118.898 686.118 145.716 671.516 177.856Z" fill="#606BF1"/>
<path d="M656.011 522.227V545.987H613.9C613.231 545.99 612.569 545.86 611.95 545.605C611.332 545.35 610.771 544.975 610.299 544.501C609.827 544.027 609.454 543.465 609.201 542.846C608.948 542.227 608.821 541.564 608.826 540.895C608.823 540.742 608.829 540.589 608.844 540.436C608.957 539.226 609.511 538.1 610.4 537.271L626.115 522.227H656.011Z" fill="#606BF1"/>
<path d="M656.011 294.308V522.227H626.111C626.111 522.227 612.287 343.686 609.104 302.67H602.639V522.227H572.759L555.099 294.308H656.011Z" fill="#56548C"/>
<path d="M664.815 180.208V294.308H555.099L559.148 157.491L539.24 172.2L535.81 169.089L535.21 168.54L510.477 146.14L509.31 144.74L538.868 111.575C554.639 97.5021 570.938 94.175 591.941 93.175C592.858 96.2853 594.384 99.1821 596.431 101.697C600.745 106.575 600.657 144.692 602.283 157.226C605.394 180.988 615.719 207.754 629.791 209.451C632.506 209.751 635.246 209.188 637.624 207.842C645.368 203.756 651.396 185.105 664.815 180.208Z" fill="#606BF1"/>
<g style="mix-blend-mode:multiply">
<path d="M664.811 180.208V294.308H629.792V209.449C632.507 209.749 635.247 209.186 637.625 207.84C645.368 203.756 651.395 185.105 664.811 180.208Z" fill="#E8EAEB"/>
</g>
<path d="M659.113 28.9691C659.113 40.1061 651.679 61.4691 637.625 74.3021C637.625 70.0911 637.425 65.8301 637.425 61.9481L640.571 59.0551C641.701 58.0034 642.541 56.6773 643.007 55.2054C643.474 53.7335 643.552 52.166 643.234 50.6551C642.727 48.2951 641.611 46.0371 639.327 45.8341C634.355 45.3521 634.787 58.3661 630.88 59.4341C626.948 60.5251 630.88 45.0501 630.88 45.0501L627.252 40.1031C627.323 39.6245 627.356 39.141 627.352 38.6571C627.343 36.1304 626.447 33.687 624.82 31.7535C623.194 29.8199 620.94 28.5191 618.452 28.0781C612.08 26.9961 605.778 25.5393 599.578 23.7151C597.23 23.0385 594.947 22.1558 592.755 21.0771C583.013 15.9771 587.355 2.37709 593.39 0.503093C599.427 -1.34791 608.864 7.32809 615.358 5.93309C621.852 4.53809 628.346 2.98909 632.988 4.53309C637.63 6.07709 637.148 13.1821 642.881 15.2121C648.585 17.2241 659.113 17.8331 659.113 28.9691Z" fill="#56548C"/>
<path d="M640.568 59.0551L637.422 61.9481C637.422 65.8291 637.622 70.0901 637.622 74.3021C637.622 81.1771 638.131 94.6211 638.131 94.6211C634.928 97.6616 630.938 99.7445 626.613 100.634C623.336 101.252 619.992 101.431 616.669 101.167C615.099 101.071 613.553 100.746 612.078 100.202C611.571 97.5391 611.292 96.0161 611.292 96.0161C611.292 96.0161 613.753 72.9321 613.753 72.0951C613.753 71.4861 611.064 65.7531 604.467 62.8601C604.418 62.8601 604.392 62.8341 604.341 62.8111C603.565 62.4872 602.769 62.2159 601.957 61.9991C601.88 61.9731 601.829 61.9481 601.757 61.9221C600.016 61.4806 598.227 61.2589 596.431 61.2621C595.552 61.2604 594.675 61.354 593.817 61.5411C592.853 48.6598 594.821 35.7277 599.573 23.7161C605.773 25.5402 612.075 26.9971 618.447 28.0791C620.935 28.5201 623.189 29.8209 624.815 31.7544C626.442 33.6879 627.338 36.1313 627.347 38.6581C627.351 39.1419 627.318 39.6254 627.247 40.1041L630.875 45.0511C630.875 45.0511 626.943 60.5251 630.875 59.4351C634.782 58.3701 634.35 45.3561 639.322 45.8351C641.606 46.0351 642.722 48.2961 643.229 50.6561C643.547 52.1667 643.469 53.7339 643.003 55.2055C642.537 56.6772 641.698 58.0033 640.568 59.0551Z" fill="#FFC8AF"/>
<path d="M602.638 522.227V545.987H560.562C559.855 545.989 559.155 545.842 558.508 545.557C557.86 545.272 557.28 544.855 556.804 544.332C556.327 543.809 555.966 543.192 555.742 542.521C555.518 541.85 555.438 541.14 555.505 540.436C555.614 539.225 556.168 538.097 557.06 537.271L572.76 522.227H602.638Z" fill="#606BF1"/>
<path d="M557.275 220.619L556.451 248.554C549.423 250.431 542.166 248.171 541.71 246.548C541.228 244.925 550.31 242.82 549.827 240.739C549.573 239.572 545.49 239.699 541.887 240.029C540.336 240.188 538.773 239.908 537.374 239.222C535.975 238.536 534.796 237.471 533.973 236.148C533.887 236.035 533.811 235.916 533.745 235.792L531.945 232.592C531.945 232.592 529.18 230.385 524.97 226.858C518.652 221.581 509.063 213.337 500.642 205.195C500.716 202.547 501.368 199.947 502.551 197.576C503.734 195.206 505.419 193.122 507.491 191.47C510.101 189.376 513.248 188.059 516.572 187.67C520.109 192.275 527.266 205.498 535.572 213.293C537.119 214.51 538.819 215.803 540.621 217.093C542.999 216.276 545.522 215.965 548.028 216.179C550.461 216.437 555.221 218.311 557.275 220.619Z" fill="#FFC8AF"/>
<path d="M531.918 165.549L528.469 168.849L522.051 175.012C515.364 174.315 508.633 175.815 502.875 179.284C497.117 182.754 492.646 188.005 490.139 194.242C487.753 191.633 485.692 188.746 484 185.642C479.1 175.57 506.349 149.975 510.053 146.524C510.332 146.27 510.484 146.144 510.484 146.144L531.918 165.549Z" fill="#FFC8AF"/>
<path d="M531.943 232.597C531.943 232.597 529.178 230.39 524.966 226.863C517.012 237.633 512.662 250.64 512.537 264.028V268.314C512.537 269.996 513.205 271.609 514.394 272.799C515.584 273.988 517.197 274.656 518.879 274.656C520.561 274.656 522.174 273.988 523.363 272.799C524.553 271.609 525.221 269.996 525.221 268.314V264.028C525.327 254.076 528.372 244.377 533.972 236.149C533.887 236.037 533.81 235.918 533.744 235.793L531.943 232.597ZM549.012 198.578C547.746 193.11 545.001 188.095 541.078 184.082C537.154 180.069 532.203 177.211 526.765 175.822C526.537 175.747 526.309 175.696 526.079 175.645C521.527 174.551 516.786 174.505 512.213 175.51C507.641 176.515 503.356 178.545 499.683 181.447C496.009 184.349 493.042 188.047 491.006 192.262C488.969 196.478 487.916 201.101 487.927 205.782C487.927 207.464 488.595 209.077 489.784 210.267C490.974 211.456 492.587 212.124 494.269 212.124C495.951 212.124 497.564 211.456 498.753 210.267C499.943 209.077 500.611 207.464 500.611 205.782C500.606 205.587 500.615 205.392 500.636 205.198C500.71 202.55 501.362 199.95 502.545 197.579C503.728 195.209 505.414 193.125 507.485 191.473C510.095 189.379 513.242 188.062 516.566 187.673C518.801 187.38 521.07 187.492 523.266 188.003C526.526 188.763 529.508 190.42 531.876 192.787C534.243 195.153 535.901 198.135 536.662 201.395C537.605 205.375 537.222 209.553 535.571 213.295C537.119 214.512 538.818 215.805 540.62 217.095C542.998 216.278 545.521 215.967 548.027 216.181C550.018 210.526 550.359 204.421 549.012 198.578ZM519.84 280.744C518.498 280.742 517.185 281.137 516.068 281.881C514.951 282.625 514.079 283.683 513.563 284.922C513.047 286.161 512.91 287.525 513.17 288.842C513.429 290.158 514.073 291.369 515.02 292.319C515.967 293.27 517.175 293.919 518.491 294.183C519.807 294.448 521.171 294.316 522.412 293.805C523.653 293.294 524.715 292.426 525.463 291.312C526.21 290.197 526.611 288.886 526.614 287.544C526.614 285.746 525.901 284.02 524.632 282.746C523.363 281.472 521.641 280.752 519.843 280.744H519.84Z" fill="#EC827D"/>
<g style="mix-blend-mode:multiply">
<g style="mix-blend-mode:multiply">
<path d="M519.843 280.744C519.688 280.744 519.543 280.779 519.39 280.79C520.497 281.618 521.323 282.765 521.756 284.078C522.19 285.39 522.21 286.804 521.814 288.128C521.418 289.452 520.625 290.623 519.542 291.482C518.459 292.341 517.138 292.846 515.759 292.93C516.617 293.577 517.616 294.012 518.675 294.197C519.733 294.382 520.821 294.313 521.847 293.994C522.874 293.676 523.81 293.119 524.578 292.368C525.347 291.617 525.926 290.693 526.267 289.675C526.609 288.656 526.703 287.57 526.543 286.507C526.382 285.445 525.971 284.436 525.343 283.563C524.715 282.691 523.889 281.98 522.933 281.49C521.977 281 520.917 280.744 519.843 280.744Z" fill="#F1F2F2"/>
</g>
<g style="mix-blend-mode:multiply">
<path d="M521.922 187.757C520.902 187.29 519.839 186.921 518.749 186.657C516.553 186.146 514.284 186.034 512.049 186.327C508.725 186.716 505.577 188.033 502.967 190.127C500.896 191.779 499.21 193.863 498.027 196.233C496.844 198.604 496.192 201.204 496.118 203.852C496.096 204.045 496.088 204.24 496.092 204.434C496.088 206.01 495.496 207.528 494.432 208.69C493.368 209.852 491.908 210.575 490.339 210.717C491.267 211.467 492.39 211.939 493.575 212.077C494.761 212.215 495.962 212.013 497.038 211.496C498.114 210.979 499.02 210.167 499.653 209.154C500.286 208.142 500.618 206.971 500.612 205.777C500.607 205.582 500.616 205.387 500.637 205.193C500.712 202.545 501.363 199.945 502.546 197.574C503.729 195.204 505.415 193.12 507.486 191.468C510.096 189.374 513.243 188.057 516.567 187.668C518.346 187.433 520.151 187.463 521.922 187.757Z" fill="#F1F2F2"/>
</g>
<g style="mix-blend-mode:multiply">
<path d="M549.015 198.578C547.749 193.11 545.004 188.095 541.081 184.082C537.157 180.069 532.206 177.211 526.768 175.822C526.54 175.747 526.312 175.696 526.082 175.645C525.911 175.605 525.739 175.578 525.569 175.545C530.26 177.334 534.44 180.249 537.741 184.033C541.041 187.817 543.362 192.354 544.497 197.245C545.842 203.087 545.499 209.191 543.507 214.845C541.683 214.678 539.843 214.802 538.058 215.212C538.884 215.835 539.738 216.465 540.619 217.1C542.997 216.283 545.52 215.972 548.026 216.186C550.019 210.529 550.362 204.422 549.015 198.578Z" fill="#F1F2F2"/>
</g>
<g style="mix-blend-mode:multiply">
<path d="M531.943 232.596C531.943 232.596 529.178 230.389 524.966 226.862C524.602 227.367 524.255 227.879 523.906 228.391C526.094 230.191 527.424 231.253 527.424 231.253L529.224 234.453C529.291 234.577 529.367 234.695 529.452 234.807C523.852 243.035 520.808 252.734 520.701 262.686V266.968C520.697 268.544 520.105 270.061 519.041 271.224C517.977 272.386 516.517 273.109 514.948 273.251C515.876 274.001 516.999 274.472 518.185 274.61C519.371 274.747 520.571 274.546 521.647 274.028C522.723 273.511 523.63 272.699 524.262 271.686C524.895 270.674 525.227 269.503 525.221 268.309V264.023C525.327 254.071 528.372 244.372 533.972 236.144C533.887 236.031 533.81 235.912 533.744 235.788L531.943 232.596Z" fill="#F1F2F2"/>
</g>
</g>
<path d="M616.669 101.167C615.1 101.071 613.553 100.746 612.078 100.202C611.571 97.5391 611.292 96.0161 611.292 96.0161C611.292 96.0161 613.753 72.9321 613.753 72.0951C613.753 71.4861 611.064 65.7531 604.467 62.8601C610.581 65.1691 615.199 68.0361 617.253 71.1601C618.98 73.7941 617.534 91.9061 616.669 101.167Z" fill="#EDB29A"/>
<path d="M531.918 165.549L528.469 168.849C524.943 164.587 515.911 153.628 510.053 146.524C510.332 146.27 510.484 146.144 510.484 146.144L531.918 165.549Z" fill="#EDB29A"/>
<path d="M667.926 176.761C667.519 177.627 667.007 178.617 666.389 179.749C663.547 184.887 660.059 189.64 656.011 193.892C650.695 199.525 644.482 204.238 637.625 207.84C619.61 217.352 603.045 187.35 599.385 159.382C597.758 146.848 600.745 106.574 596.432 101.696C594.385 99.1812 592.858 96.2843 591.941 93.174C590.474 88.754 589.96 83.998 591.058 80.94C591.958 78.465 594.683 73.286 591.958 72.224C589.258 71.164 588.44 79.207 584.658 78.236C582.8 77.777 583.773 63.65 593.814 61.546C594.673 61.3582 595.551 61.2637 596.431 61.264C608.931 61.264 613.757 71.288 613.757 72.101C613.757 72.932 611.3 96.021 611.3 96.021C611.3 96.021 611.565 97.541 612.078 100.21C615.225 116.794 632.496 177.817 632.496 177.817C632.496 177.817 636.932 174.212 640.257 170.781C640.911 170.091 641.512 169.419 642.041 168.765L642.06 168.888L667.926 176.761Z" fill="#FFC8AF"/>
<g style="mix-blend-mode:multiply">
<path d="M638.828 167.904L642.063 168.893C640.188 172.66 637.324 178.335 632.498 177.821C632.296 177.789 632.107 177.704 631.949 177.574C633.293 169.089 636.249 152.522 639.849 144.249C644.674 133.2 651.64 128.762 652.083 128.497L638.828 167.904Z" fill="#E8EAEB"/>
</g>
<path d="M667.926 176.761C667.519 177.627 667.007 178.617 666.389 179.749L640.259 170.786C640.913 170.096 641.514 169.424 642.043 168.77L642.062 168.893L667.926 176.761Z" fill="#EDB29A"/>
<g style="mix-blend-mode:multiply">
<path d="M656.011 294.308V522.227H647.101L639.764 298.427L555.099 294.308H656.011Z" fill="#E8EAEB"/>
</g>
<g style="mix-blend-mode:multiply">
<path d="M602.638 302.671V522.227H594.099L592.137 302.671H602.638Z" fill="#E8EAEB"/>
</g>
<path d="M555.502 540.437H602.635V545.988H560.561C559.854 545.99 559.154 545.844 558.507 545.559C557.859 545.274 557.278 544.856 556.802 544.333C556.325 543.811 555.964 543.194 555.74 542.523C555.516 541.852 555.435 541.141 555.502 540.437Z" fill="#BEE1F4"/>
<path d="M656.011 540.437V545.988H613.9C613.231 545.991 612.569 545.861 611.95 545.606C611.332 545.351 610.771 544.976 610.299 544.502C609.827 544.028 609.454 543.466 609.201 542.847C608.948 542.228 608.821 541.565 608.826 540.896C608.823 540.743 608.829 540.59 608.844 540.437H656.011Z" fill="#BEE1F4"/>
<path d="M637.42 61.9481C636.02 63.0161 632.493 62.8601 632.493 62.8601C633.156 63.6548 634.001 64.2777 634.957 64.6761C636.02 64.8841 637.42 61.9481 637.42 61.9481Z" fill="#EDB29A"/>
<g style="mix-blend-mode:multiply">
<path d="M559.148 135.445V157.491L539.241 172.2L535.811 169.089L559.148 135.445Z" fill="#E8EAEB"/>
</g>
<path d="M182.235 408.782L144.818 511.926C135.255 512.307 127.39 508.731 121.225 501.196L142.509 403.096L125.209 310.047H116.762L111.611 522.071C104.382 525.064 91.571 524.736 83.352 522.224L70.592 303.912L70.313 298.965H169.425L170.06 302.719L184.16 387.675C185.344 394.759 184.681 402.029 182.235 408.782Z" fill="#EC827D"/>
<path d="M182.16 231.435C182.16 231.435 187.06 245.844 183.251 251.551C182.413 252.764 181.471 253.902 180.435 254.951C177.838 257.477 174.942 259.675 171.81 261.495C169.158 248.385 167.294 235.128 166.229 221.795C166.229 221.795 172.521 225.727 175.768 231.435H182.16Z" fill="#FFC8AF"/>
<path d="M156.904 540.719C156.639 541.425 156.25 542.078 155.754 542.647C153.954 544.747 150.787 544.947 145.199 543.46C141.699 542.522 135.212 537.927 129.412 532.516C122.906 526.416 117.143 520 117.143 520L118.151 515.385L121.227 501.185C127.396 508.734 135.258 512.311 144.812 511.915L150.203 529.595C150.203 529.595 158.445 536.865 156.904 540.719Z" fill="#56548C"/>
<path d="M146.948 91.634C144.869 94.069 134.748 93.134 134.748 93.134V97.522C134.398 101.622 132.531 105.443 129.512 108.239C126.493 111.035 122.54 112.604 118.425 112.639C114.311 112.674 110.331 111.172 107.265 108.428C104.199 105.684 102.268 101.894 101.848 97.801V85.241C111.309 85.571 110.827 77.834 110.827 77.834C110.827 77.834 105.601 74.815 105.271 69.614C104.941 64.413 110.978 60.381 113.44 61.344C115.902 62.307 114.961 75.804 119.552 74.485C120.821 74.104 121.152 68.676 121.202 65.685C121.241 64.4134 121.767 63.2054 122.672 62.311L124.042 60.911C124.631 60.3375 125.06 59.6202 125.286 58.83L127.949 49.953C135.504 49.5487 142.796 47.0449 149.005 42.723C156.816 62.663 149.054 89.198 146.948 91.634Z" fill="#FFC8AF"/>
<path d="M129.908 545.988H84.756L84.456 540.968L83.356 522.228C91.576 524.738 104.377 525.074 111.607 522.069L126.461 535.751L131.923 540.771C131.992 540.829 132.051 540.896 132.1 540.971C132.495 541.397 132.757 541.93 132.854 542.503C132.951 543.076 132.879 543.664 132.646 544.197C132.413 544.73 132.03 545.183 131.544 545.501C131.058 545.819 130.489 545.988 129.908 545.988Z" fill="#56548C"/>
<path d="M225.157 186.914C221.099 163.5 178.911 114.714 170.357 108.706C162.824 103.378 140.043 98.5831 134.741 97.5181C134.391 101.618 132.524 105.439 129.505 108.235C126.486 111.031 122.532 112.6 118.418 112.635C114.303 112.67 110.324 111.168 107.258 108.424C104.192 105.68 102.26 101.89 101.841 97.7971C93.3179 100.132 56.6849 110.355 50.3179 113.855C43.1179 117.813 7.24291 154.266 1.35891 201.323C-2.32009 230.823 22.3379 253.2 55.6959 258.579V273.293L63.2799 280.877V298.965H169.425V278.416L174.27 273.57C173.382 269.461 172.57 265.453 171.809 261.495C169.157 248.385 167.293 235.128 166.228 221.795C164.931 204.949 165.586 188.009 168.181 171.313C168.181 171.313 190.937 179.685 192.332 194.727C192.749 200.054 191.393 205.369 188.476 209.846C186.026 213.709 182.887 217.088 179.216 219.816V226.742L175.767 231.435H182.16C182.16 231.435 187.06 245.844 183.251 251.551C182.413 252.764 181.471 253.902 180.435 254.951C182.058 254.921 183.646 254.474 185.046 253.652C186.445 252.83 187.609 251.661 188.426 250.258C193.078 249.171 197.628 247.686 202.026 245.818C207.425 243.281 230.206 216.136 225.157 186.914ZM55.7009 219.969C48.9269 218.069 43.1939 214.692 40.8359 208.909C39.813 206.456 39.155 203.867 38.8829 201.223C38.816 200.759 38.7733 200.292 38.7549 199.823C38.7489 199.819 38.744 199.813 38.7407 199.806C38.7373 199.799 38.7356 199.792 38.7356 199.785C38.7356 199.777 38.7373 199.77 38.7407 199.763C38.744 199.756 38.7489 199.751 38.7549 199.746C38.6503 197.696 38.8208 195.641 39.2619 193.636C42.0529 179.785 55.7009 171.313 55.7009 171.313V219.969ZM124.574 279.558C123.232 279.56 121.919 279.165 120.802 278.421C119.685 277.678 118.813 276.619 118.297 275.381C117.781 274.142 117.644 272.777 117.904 271.461C118.163 270.144 118.807 268.934 119.754 267.983C120.701 267.032 121.909 266.383 123.225 266.119C124.541 265.855 125.905 265.986 127.146 266.497C128.387 267.009 129.449 267.876 130.197 268.991C130.944 270.105 131.345 271.416 131.348 272.758C131.348 274.557 130.635 276.283 129.365 277.557C128.096 278.832 126.373 279.551 124.574 279.558ZM147.392 213.97C146.735 218.186 143.676 226.132 143.676 226.132V231.383C143.672 234.185 142.556 236.871 140.572 238.85C138.588 240.829 135.899 241.939 133.097 241.936H130.535C130.15 244.353 129.955 246.796 129.951 249.243V253.555C129.951 255.237 129.283 256.85 128.093 258.04C126.904 259.229 125.291 259.897 123.609 259.897C121.927 259.897 120.314 259.229 119.124 258.04C117.935 256.85 117.267 255.237 117.267 253.555V249.243C117.262 246.799 117.423 244.358 117.749 241.936H108.109V224.662H113.135L116.205 214.692C116.531 213.615 117.098 212.625 117.863 211.799C118.628 210.973 119.57 210.331 120.619 209.922L136.905 203.529C139.012 201.312 140.527 198.6 141.312 195.643C142.096 192.687 142.124 189.58 141.394 186.61C140.637 183.351 138.98 180.37 136.613 178.007C134.245 175.643 131.261 173.992 128.001 173.241C125.308 172.58 122.5 172.54 119.79 173.124C117.079 173.708 114.537 174.9 112.355 176.61C110.173 178.321 108.408 180.505 107.194 182.998C105.98 185.49 105.348 188.226 105.347 190.999C105.347 192.681 104.679 194.294 103.489 195.484C102.3 196.673 100.687 197.341 99.0049 197.341C97.3229 197.341 95.7098 196.673 94.5204 195.484C93.3311 194.294 92.6629 192.681 92.6629 190.999C92.6505 186.345 93.6944 181.749 95.7158 177.557C97.7373 173.366 100.684 169.687 104.333 166.799C108.012 163.873 112.307 161.819 116.894 160.791C121.481 159.763 126.241 159.788 130.817 160.864C136.402 162.159 141.512 164.994 145.566 169.048C149.619 173.102 152.455 178.212 153.75 183.797C154.864 188.53 154.852 193.458 153.715 198.185C152.578 202.913 150.348 207.307 147.204 211.016C148.141 211.521 147.763 212.653 147.392 213.97Z" fill="#A5B7C6"/>
<g style="mix-blend-mode:multiply">
<path d="M108.11 224.662V222.734H101.428C101.428 222.734 99.0838 221.497 97.6278 220.934C96.1718 220.371 67.2578 220.934 67.2578 220.934C67.2578 220.934 95.0578 218.925 100.085 219.148C105.112 219.371 110.358 221.9 111.195 222.73C111.728 223.285 112.145 223.94 112.423 224.658H108.106" fill="#E6E7E8"/>
</g>
<path d="M149.004 42.725C142.795 47.0469 135.503 49.5508 127.948 49.9551L125.285 58.8321C125.059 59.6224 124.63 60.3398 124.041 60.913L122.671 62.3131C121.766 63.2077 121.239 64.4154 121.199 65.687C121.15 68.68 120.819 74.1081 119.55 74.4871C114.959 75.8061 115.898 62.31 113.438 61.346C110.978 60.382 104.938 64.416 105.269 69.6161C105.6 74.8161 110.825 77.8361 110.825 77.8361C110.825 77.8361 111.307 85.5731 101.846 85.243C100.676 85.202 98.07 79.354 97.646 78.51C92.055 67.41 90.62 54.5441 95.477 42.9451C96.3704 40.6504 97.5729 38.4885 99.051 36.519C99.983 35.4388 101.229 34.6763 102.615 34.338C104.007 33.877 106.169 34.18 107.361 33.619C108.445 33.109 108.705 31.5461 109.691 30.7091C111.062 29.5481 113.332 29.1541 115.052 28.7331C123.068 26.873 131.344 26.4076 139.517 27.357C143.567 27.835 149.492 28.9801 151.786 32.7521C154.183 36.6951 152.338 40.323 149.004 42.725Z" fill="#112B46"/>
<path d="M153.748 183.795C152.453 178.21 149.618 173.101 145.564 169.047C141.51 164.993 136.401 162.157 130.816 160.862C126.24 159.786 121.479 159.761 116.892 160.789C112.305 161.817 108.011 163.871 104.332 166.797C100.682 169.685 97.7361 173.364 95.7146 177.555C93.6932 181.747 92.6493 186.343 92.6617 190.997C92.6617 191.83 92.8258 192.655 93.1445 193.424C93.4632 194.193 93.9303 194.893 94.5193 195.481C95.1082 196.07 95.8073 196.538 96.5768 196.856C97.3462 197.175 98.1709 197.339 99.0037 197.339C99.8366 197.339 100.661 197.175 101.431 196.856C102.2 196.538 102.899 196.07 103.488 195.481C104.077 194.893 104.544 194.193 104.863 193.424C105.182 192.655 105.346 191.83 105.346 190.997C105.347 188.224 105.979 185.489 107.193 182.996C108.407 180.503 110.171 178.319 112.353 176.609C114.535 174.898 117.078 173.706 119.788 173.122C122.498 172.538 125.306 172.578 127.999 173.239C131.259 173.99 134.242 175.642 136.61 178.005C138.978 180.369 140.635 183.349 141.392 186.608C142.122 189.578 142.094 192.685 141.31 195.641C140.525 198.598 139.01 201.31 136.903 203.527C136.844 203.609 136.777 203.686 136.703 203.755C134.111 206.425 131.719 209.282 129.549 212.304C134.242 210.859 143.096 208.652 147.205 211.011C150.348 207.302 152.577 202.908 153.713 198.181C154.85 193.455 154.862 188.527 153.748 183.795ZM123.611 259.895C125.292 259.894 126.905 259.226 128.094 258.037C129.284 256.847 129.952 255.235 129.953 253.553V249.244C129.957 246.797 130.152 244.354 130.537 241.937H117.751C117.425 244.359 117.264 246.8 117.269 249.244V253.554C117.269 255.236 117.937 256.85 119.126 258.039C120.315 259.229 121.929 259.897 123.611 259.898V259.895ZM124.574 265.983C123.23 265.981 121.917 266.377 120.799 267.122C119.681 267.867 118.809 268.926 118.294 270.167C117.779 271.408 117.644 272.773 117.906 274.091C118.167 275.408 118.814 276.618 119.764 277.568C120.714 278.518 121.924 279.164 123.242 279.425C124.56 279.687 125.925 279.551 127.166 279.036C128.406 278.52 129.466 277.648 130.21 276.53C130.955 275.412 131.351 274.098 131.348 272.755C131.346 270.96 130.631 269.238 129.361 267.969C128.091 266.7 126.369 265.987 124.574 265.986V265.983Z" fill="#EC827D"/>
<g style="mix-blend-mode:multiply">
<g style="mix-blend-mode:multiply">
<path d="M97.7012 190.331C97.7041 183.262 100.126 176.407 104.565 170.905C109.004 165.404 115.193 161.587 122.101 160.09C114.165 160.48 106.683 163.907 101.204 169.66C95.7238 175.414 92.6657 183.054 92.6622 190.999C92.6561 192.126 92.9519 193.234 93.5188 194.208C94.0857 195.182 94.903 195.986 95.8859 196.537C96.8687 197.088 97.9813 197.366 99.1078 197.342C100.234 197.317 101.334 196.992 102.292 196.399C100.972 196.023 99.8106 195.227 98.9824 194.133C98.1542 193.038 97.7046 191.704 97.7012 190.331Z" fill="#F1F2F2"/>
</g>
<g style="mix-blend-mode:multiply">
<path d="M141.943 202.863C144.051 200.645 145.566 197.933 146.351 194.977C147.136 192.02 147.164 188.913 146.434 185.942C145.676 182.683 144.018 179.702 141.649 177.338C139.28 174.975 136.295 173.324 133.034 172.573C129.992 171.855 126.819 171.909 123.803 172.731C125.215 172.751 126.62 172.922 127.995 173.241C131.255 173.992 134.239 175.644 136.607 178.007C138.974 180.371 140.631 183.351 141.388 186.61C142.119 189.58 142.09 192.687 141.306 195.643C140.522 198.6 139.006 201.312 136.899 203.529C136.84 203.611 136.773 203.688 136.699 203.757C134.107 206.427 131.716 209.284 129.545 212.306C131.09 211.831 133.088 211.274 135.217 210.825C137.214 208.103 139.393 205.519 141.739 203.091C141.813 203.021 141.882 202.945 141.943 202.863Z" fill="#F1F2F2"/>
</g>
<g style="mix-blend-mode:multiply">
<path d="M123.611 259.897C124.773 259.892 125.911 259.566 126.898 258.953C125.579 258.577 124.418 257.781 123.59 256.687C122.762 255.593 122.313 254.259 122.309 252.887V248.575C122.312 246.356 122.451 244.139 122.725 241.937H117.751C117.425 244.359 117.264 246.8 117.269 249.244V253.556C117.27 255.238 117.938 256.85 119.128 258.039C120.317 259.228 121.929 259.897 123.611 259.897Z" fill="#F1F2F2"/>
</g>
<g style="mix-blend-mode:multiply">
<path d="M122.815 272.091C122.818 270.894 123.139 269.719 123.747 268.688C124.354 267.656 125.226 266.806 126.271 266.223C125.339 265.978 124.365 265.935 123.414 266.097C122.464 266.259 121.558 266.622 120.759 267.161C119.96 267.7 119.285 268.404 118.78 269.225C118.274 270.046 117.949 270.965 117.827 271.922C117.705 272.878 117.789 273.85 118.072 274.771C118.356 275.693 118.833 276.544 119.471 277.266C120.109 277.989 120.894 278.567 121.774 278.962C122.653 279.357 123.607 279.56 124.571 279.557C125.743 279.55 126.892 279.236 127.904 278.646C126.45 278.271 125.161 277.424 124.24 276.238C123.319 275.051 122.818 273.593 122.815 272.091Z" fill="#F1F2F2"/>
</g>
<g style="mix-blend-mode:multiply">
<path d="M140.969 210.01C143.099 209.766 145.255 210.112 147.202 211.01C147.661 210.473 148.092 209.919 148.51 209.356C145.979 209.247 143.444 209.467 140.969 210.01Z" fill="#F1F2F2"/>
</g>
</g>
<path d="M120.618 209.923L136.904 203.53C136.845 203.612 136.778 203.689 136.704 203.758C134.111 206.428 131.72 209.285 129.55 212.308C134.243 210.862 143.097 208.655 147.206 211.013C148.147 211.5 148.858 212.339 149.185 213.348C149.385 216.526 145.857 221.195 145.857 221.195L143.677 231.384C143.673 234.186 142.557 236.872 140.573 238.851C138.589 240.83 135.9 241.94 133.098 241.937H108.111V224.662H113.134L116.204 214.692C116.53 213.615 117.097 212.626 117.862 211.8C118.627 210.973 119.569 210.332 120.618 209.923Z" fill="#FFC8AF"/>
<g style="mix-blend-mode:multiply">
<path d="M117.75 241.937C117.75 241.937 114.633 249.979 97.5331 257.26C80.4101 264.565 55.7021 265.884 55.7021 265.884V258.579C80.8851 258.579 89.8181 253.911 93.2801 251.757C97.1801 249.327 99.2071 245.286 100.526 245.057C101.872 244.829 108.112 244.499 108.112 244.499V241.936L117.75 241.937Z" fill="#E6E7E8"/>
</g>
<g style="mix-blend-mode:multiply">
<path d="M96.7028 102.211C96.7778 104.445 101.988 111.442 107.049 114.121C107.049 114.121 101.466 112.855 98.6388 109.654C97.8022 108.624 97.1965 107.427 96.8625 106.143C96.5285 104.859 96.474 103.518 96.7028 102.211Z" fill="#E6E7E8"/>
</g>
<g style="mix-blend-mode:multiply">
<path d="M38.7548 199.827C38.7732 200.296 38.8159 200.763 38.8828 201.227L38.7298 201.074C38.7288 200.664 38.7288 200.232 38.7548 199.827Z" fill="#E6E7E8"/>
</g>
<g style="mix-blend-mode:multiply">
<path d="M61.4847 157.59L57.3247 219.969H55.7027V171.314C55.7027 171.314 42.0527 179.786 39.2617 193.637C42.6357 171.211 61.4847 157.59 61.4847 157.59Z" fill="#E6E7E8"/>
</g>
<g style="mix-blend-mode:multiply">
<path d="M188.477 209.842C191.394 205.365 192.75 200.05 192.333 194.723C190.933 179.681 168.182 171.309 168.182 171.309L172.545 153.577C172.545 153.577 198.168 172.628 197.559 190.184C197.448 193.904 196.586 197.562 195.026 200.941C193.465 204.319 191.238 207.346 188.477 209.842Z" fill="#E6E7E8"/>
</g>
<g style="mix-blend-mode:multiply">
<path d="M170.059 302.718L70.592 303.91L70.313 298.963H169.425L170.059 302.718Z" fill="#E6E7E8"/>
</g>
<path d="M110.825 77.8341C112.711 78.4168 114.729 78.4168 116.615 77.8341C116.615 77.8341 115.961 81.4811 113.715 81.3691C111.469 81.2571 110.825 77.8341 110.825 77.8341Z" fill="#EDB29A"/>
<path d="M146.948 91.634C144.869 94.069 134.748 93.134 134.748 93.134V96.813C128.229 95.088 125.338 91.2061 125.338 91.2061C125.338 91.2061 141.748 92.318 146.948 91.634Z" fill="#EDB29A"/>
<path d="M129.908 545.988H84.7551L84.4551 540.968H132.1C132.496 541.394 132.759 541.927 132.856 542.5C132.954 543.074 132.882 543.663 132.649 544.196C132.416 544.729 132.033 545.183 131.546 545.501C131.059 545.82 130.49 545.989 129.908 545.988Z" fill="#A5B7C6"/>
<path d="M155.754 542.647C153.954 544.747 150.787 544.947 145.199 543.46C141.699 542.522 135.212 537.927 129.412 532.516C122.906 526.416 117.143 520 117.143 520L118.151 515.385C122.217 520.212 131.8 531.279 137.545 535.662C143.555 540.259 150.308 544.521 155.754 542.647Z" fill="#A5B7C6"/>
<g style="mix-blend-mode:multiply">
<path d="M169.425 278.416C169.425 278.416 151.19 280.438 133.971 281.935C124.516 282.828 115.016 283.172 105.521 282.964C105.521 282.964 129.573 284.506 148.664 283.034C167.755 281.562 169.425 281.044 169.425 281.044V278.416Z" fill="#E6E7E8"/>
</g>
</svg>
