<svg width="30" height="31" viewBox="0 0 30 31" fill="none" xmlns="http://www.w3.org/2000/svg">
<path d="M14.9962 10.9807C12.2419 10.9807 9.99411 13.2285 9.99411 15.9829C9.99411 18.7372 12.2419 20.985 14.9962 20.985C17.7506 20.985 19.9984 18.7372 19.9984 15.9829C19.9984 13.2285 17.7506 10.9807 14.9962 10.9807ZM29.9989 15.9829C29.9989 13.9115 30.0176 11.8588 29.9013 9.79119C29.785 7.38958 29.2371 5.25815 27.4809 3.50197C25.721 1.74204 23.5933 1.19792 21.1917 1.08159C19.1203 0.965264 17.0676 0.984026 15 0.984026C12.9286 0.984026 10.876 0.965264 8.80831 1.08159C6.40669 1.19792 4.27525 1.74579 2.51907 3.50197C0.759128 5.2619 0.215011 7.38958 0.098682 9.79119C-0.0176466 11.8626 0.00111617 13.9152 0.00111617 15.9829C0.00111617 18.0505 -0.0176466 20.1069 0.098682 22.1745C0.215011 24.5761 0.762881 26.7076 2.51907 28.4637C4.27901 30.2237 6.40669 30.7678 8.80831 30.8841C10.8797 31.0004 12.9323 30.9817 15 30.9817C17.0714 30.9817 19.124 31.0004 21.1917 30.8841C23.5933 30.7678 25.7247 30.2199 27.4809 28.4637C29.2409 26.7038 29.785 24.5761 29.9013 22.1745C30.0214 20.1069 29.9989 18.0542 29.9989 15.9829ZM14.9962 23.6793C10.7371 23.6793 7.29979 20.242 7.29979 15.9829C7.29979 11.7237 10.7371 8.28643 14.9962 8.28643C19.2554 8.28643 22.6927 11.7237 22.6927 15.9829C22.6927 20.242 19.2554 23.6793 14.9962 23.6793ZM23.0079 9.76868C22.0135 9.76868 21.2104 8.96564 21.2104 7.97122C21.2104 6.9768 22.0135 6.17376 23.0079 6.17376C24.0023 6.17376 24.8054 6.9768 24.8054 7.97122C24.8057 8.20735 24.7594 8.44122 24.6691 8.65943C24.5789 8.87764 24.4465 9.07591 24.2796 9.24287C24.1126 9.40984 23.9143 9.54223 23.6961 9.63246C23.4779 9.72268 23.244 9.76897 23.0079 9.76868Z" fill="white"/>
</svg>
