<svg width="30" height="31" viewBox="0 0 30 31" fill="none" xmlns="http://www.w3.org/2000/svg">
<path d="M28.8 0.98291H1.2C0.53625 0.98291 0 1.51916 0 2.18291V29.7828C0 30.4465 0.53625 30.9828 1.2 30.9828H28.8C29.4638 30.9828 30 30.4465 30 29.7828V2.18291C30 1.51916 29.4638 0.98291 28.8 0.98291ZM25.335 9.73913H22.9388C21.06 9.73913 20.6963 10.6316 20.6963 11.9441V14.8354H25.1813L24.5963 19.3616H20.6963V30.9828H16.02V19.3653H12.1088V14.8354H16.02V11.4979C16.02 7.62413 18.3863 5.51289 21.8438 5.51289C23.5013 5.51289 24.9225 5.63664 25.3388 5.69289V9.73913H25.335Z" fill="white"/>
</svg>
