<svg width="644" height="371" viewBox="0 0 644 371" fill="none" xmlns="http://www.w3.org/2000/svg">
<path d="M250.833 316.103C247.115 326.163 241.211 370.465 241.211 370.465H366.303L361.93 317.415L250.833 316.103Z" fill="#453759"/>
<path d="M197.585 198.121C189.493 193.421 179.871 183.25 179.652 173.629C179.433 164.008 182.604 165.646 187.744 171.77C192.884 177.894 199.881 183.908 200.319 180.736C200.757 177.564 196.164 172.645 199.773 171.005C203.382 169.365 207.755 187.843 208.739 192.436" fill="#FFAEBF"/>
<path d="M452.887 142.841C460.979 138.141 470.601 127.97 470.819 118.348C471.037 108.726 467.867 110.366 462.727 116.489C457.587 122.612 450.59 128.626 450.153 125.455C449.716 122.284 454.308 117.363 450.699 115.723C447.09 114.083 442.717 132.562 441.733 137.154" fill="#FFAEBF"/>
<path d="M400.415 230.594C386.515 236.675 373.906 231.331 363.464 207.476C363.387 207.313 363.31 207.142 363.241 206.976C361.271 233.871 362.141 294.008 365.211 310.196C368.281 326.384 369.142 329.442 360.397 335.78C351.652 342.118 344.654 329.005 323.875 329.442C305.597 329.827 302.89 337.999 288.346 336.817C286.097 336.626 283.865 336.28 281.665 335.781C277.061 334.77 272.541 333.416 268.14 331.73C254.95 326.608 246.718 319.473 247.558 314.13C248.534 307.869 263.866 257.291 267.549 234.507C267.909 232.409 268.161 230.293 268.303 228.169C268.32 228.023 268.32 227.886 268.329 227.749C255.207 248.091 246.029 266.455 232.903 262.301C229.177 261.119 224.321 256.048 219.31 249.248C206.659 232.1 192.972 203.989 193.76 199.758C194.848 193.858 203.816 183.358 210.377 188.392C216.938 193.426 234 218.567 234 218.567C234 218.567 255.644 156.238 272.047 149.24C273.986 148.4 275.977 147.685 278.008 147.099C289.665 143.741 295.627 147.365 327.815 135.245C349.459 130.217 357.115 119.502 370.453 130.654C383.791 141.806 396.047 189.044 396.047 189.044L440.004 131.605C441.122 131.423 442.258 131.383 443.387 131.485H443.396C447.182 131.819 452.912 133.875 453.777 143.117C455.087 157.113 414.411 224.47 400.415 230.594Z" fill="#864BF7"/>
<path d="M443.387 131.485C443.278 131.532 443.166 131.572 443.053 131.605C427.661 136.633 406.831 200.632 397.212 200.966C387.593 201.3 381.76 178.182 376.219 158.645C370.678 139.108 366.3 138.525 342.926 141.155C322.789 143.416 291.946 150.855 278.01 147.099C289.667 143.741 295.629 147.365 327.817 135.245C349.461 130.217 357.117 119.502 370.455 130.654C383.793 141.806 396.048 189.043 396.048 189.043L440.005 131.604C441.123 131.423 442.259 131.383 443.387 131.485Z" fill="#6C33DB"/>
<path d="M360.398 335.785C351.653 342.123 344.655 329.01 323.876 329.447C305.598 329.832 302.891 338.004 288.347 336.822C307.182 333.447 326.711 320.668 336.784 321.79C350.557 323.323 345.529 315.229 351.867 299.923C358.205 284.617 357.34 240.66 356.681 218.57C356.022 196.48 358.154 185.654 358.154 185.654L363.464 207.478C363.387 207.315 363.31 207.144 363.241 206.978C361.271 233.873 362.141 294.01 365.211 310.198C368.281 326.386 369.143 329.446 360.398 335.785Z" fill="#6C33DB"/>
<path d="M304.123 305.316C319.285 309.105 328.239 306.691 329.776 288.544C326.829 293.723 317.973 304.005 304.123 305.316Z" fill="#6C33DB"/>
<path d="M280.14 290.298C297.198 291.829 314.04 297.298 318.629 281.77C323.218 266.242 327.812 249.841 327.812 249.841C327.812 249.841 303.102 281.332 280.14 290.298Z" fill="#6C33DB"/>
<path d="M268.301 228.17C268.318 228.024 268.318 227.887 268.327 227.75C255.205 248.092 246.027 266.456 232.901 262.302C229.175 261.12 224.319 256.049 219.308 249.249C234.563 255.784 244.961 249.318 250.177 242.842C256.515 234.971 272.284 200.966 272.284 200.966C271.431 210.097 270.102 219.178 268.301 228.17Z" fill="#6C33DB"/>
<path d="M327.668 117.535C327.668 103.535 348.079 72.1941 346.184 67.2351C345.726 65.8818 344.797 64.7387 343.565 64.0155C342.333 63.2924 340.881 63.0377 339.477 63.2981C339.477 63.2981 345.455 50.3231 338.457 42.7411C331.459 35.1591 289.034 26.4121 282.327 18.6851C275.62 10.9581 272.413 26.2661 278.827 32.5351C267.601 28.1621 250.835 15.1861 246.027 29.0351C241.219 42.8841 247.485 77.4351 270.374 83.9981" fill="#453759"/>
<path d="M299.675 126.573C299.675 126.573 304.341 138.383 304.487 139.112C304.633 139.841 302.3 153.837 310.756 154.274C319.212 154.711 335.54 133.28 335.54 133.28C335.54 133.28 324.023 111.78 325.918 100.08" fill="#FF85A8"/>
<path d="M262.472 75.3921C262.472 75.3921 266.417 99.9131 268.987 109.334C271.557 118.755 286.974 131.604 297.252 131.604C307.53 131.604 323.331 113.161 325.081 102.004C333.828 102.66 337.546 93.9131 336.781 88.0041C336.016 82.0951 328.253 82.8651 325.081 84.7241C321.909 86.5831 319.395 92.9241 319.395 92.9241L316.88 79.9121C316.88 79.9121 285.28 81.8801 266.364 68.5411C264.395 73.7971 262.472 75.3921 262.472 75.3921Z" fill="#FFAEBF"/>
<path d="M363.241 206.979C359.304 194.079 354.056 164.334 354.056 164.334" stroke="#551BA8" stroke-width="2" stroke-linecap="round" stroke-linejoin="round"/>
<path d="M268.33 227.754C271.83 209.384 273.579 183.798 277.078 175.054" stroke="#551BA8" stroke-width="2" stroke-linecap="round" stroke-linejoin="round"/>
<path d="M233.996 218.569C231 222.24 229.514 226.915 229.841 231.642" stroke="#551BA8" stroke-width="2" stroke-linecap="round" stroke-linejoin="round"/>
<path d="M396.045 189.046C395.826 199.105 396.045 212.882 396.045 212.882" stroke="#551BA8" stroke-width="2" stroke-linecap="round" stroke-linejoin="round"/>
<path d="M335.541 240.438C309.441 277.177 272.705 295.547 272.705 295.547" stroke="#551BA8" stroke-width="2" stroke-linecap="round" stroke-linejoin="round"/>
<path d="M299.675 304.731C317.608 309.396 332.475 284.612 332.475 284.612" stroke="#551BA8" stroke-width="2" stroke-linecap="round" stroke-linejoin="round"/>
<path d="M299.675 143.701C299.675 143.701 290.637 162.001 310.465 162.148C330.293 162.295 342.924 130.376 342.924 130.376" stroke="#551BA8" stroke-width="2" stroke-linecap="round" stroke-linejoin="round"/>
<path d="M322 110.327C319.285 118.956 306.041 131.642 296.753 131.587" stroke="#EF5689" stroke-width="2" stroke-linecap="round" stroke-linejoin="round"/>
<path d="M450.228 125.763C451.128 127.47 451.654 129.35 451.773 131.276" stroke="#EF5689" stroke-width="2" stroke-linecap="round" stroke-linejoin="round"/>
<path d="M200.278 179.51C200.484 181.446 198.132 184.235 198.624 186.695" stroke="#EF5689" stroke-width="2" stroke-linecap="round" stroke-linejoin="round"/>
<path d="M330.438 88.0691C327.322 88.9981 326.611 93.9691 329.071 95.5591" stroke="#EF5689" stroke-width="2" stroke-linecap="round" stroke-linejoin="round"/>
<path d="M286.953 93.4791C287.391 97.5611 282.434 107.038 285.933 107.621C288.119 107.967 290.346 107.967 292.533 107.621" stroke="#EF5689" stroke-width="2" stroke-linecap="round" stroke-linejoin="round"/>
<path d="M300.567 96.9231C302.077 96.9231 303.301 95.3812 303.301 93.4791C303.301 91.577 302.077 90.0351 300.567 90.0351C299.057 90.0351 297.833 91.577 297.833 93.4791C297.833 95.3812 299.057 96.9231 300.567 96.9231Z" fill="#453759"/>
<path d="M278.862 95.5571C278.862 97.4571 277.638 99.0011 276.128 99.0011C274.618 99.0011 273.395 97.4581 273.395 95.5571C273.395 93.6561 274.618 92.1121 276.128 92.1121C277.638 92.1121 278.862 93.6551 278.862 95.5571Z" fill="#453759"/>
<path d="M294.077 116.059C297.795 115.676 303.864 112.724 303.864 112.724C303.864 112.724 305.395 116.824 301.677 118.738C297.959 120.652 295.448 118.739 294.077 116.059Z" fill="white"/>
<path d="M271.283 88.3371C272.183 87.4233 273.342 86.8075 274.603 86.5729C275.864 86.3383 277.167 86.4962 278.336 87.0251" stroke="#453759" stroke-width="2" stroke-linecap="round" stroke-linejoin="round"/>
<path d="M294.077 85.3331C294.077 85.3331 295.334 81.3971 302.387 84.0761" stroke="#453759" stroke-width="2" stroke-linecap="round" stroke-linejoin="round"/>
<path d="M110.365 305.312C113.037 304.575 117.329 303.179 121.877 301.492C130.16 298.417 139.277 294.357 140.977 291.539C143.607 287.162 132.455 270.76 133.328 266.169C134.201 261.578 133.876 255.128 130.484 254.906C127.092 254.684 111.563 262.127 111.563 262.127C111.563 262.127 107.083 250.752 100.848 249.99C94.6127 249.228 102.493 261.356 101.071 268.79C100.908 269.621 100.703 270.452 100.463 271.274C99.0469 275.641 97.0042 279.778 94.3986 283.557C94.3986 283.557 91.8897 304.551 110.365 305.312Z" fill="#FFAEBF"/>
<path d="M110.365 305.312C113.037 304.575 117.329 303.179 121.877 301.492C114.04 296.832 104.755 280.053 100.464 271.274C99.048 275.641 97.0053 279.778 94.3997 283.557C94.3997 283.557 91.8897 304.55 110.365 305.312Z" fill="#FF85A8"/>
<path d="M105.41 314.786L99.4397 320.679L90.3517 329.647L82.9257 336.97L73.8377 345.938L66.4197 353.261L57.3317 362.229L49.9137 369.552L48.9887 370.46H0.802734V333.813C3.00226 332.025 5.37506 330.461 7.88573 329.145C10.9607 327.398 14.7857 325.411 19.0377 323.278C21.9587 321.822 25.0847 320.297 28.3307 318.747C32.0567 316.974 35.9307 315.167 39.8077 313.385C42.9767 311.929 46.1547 310.485 49.2547 309.094C53.3057 307.27 57.2457 305.531 60.8947 303.946C64.3947 302.413 67.6357 301.025 70.4537 299.835C75.3187 297.771 78.9157 296.315 80.4747 295.767C81.0982 295.549 81.7025 295.28 82.2817 294.962C84.5027 293.684 86.3147 291.801 87.5067 289.532C87.5157 289.523 87.5157 289.523 87.5157 289.515C88.4237 287.948 89.1347 286.372 89.9227 285.061C90.5353 283.841 91.5144 282.844 92.7227 282.209C93.5438 281.895 94.4543 281.907 95.2667 282.243C100.158 283.896 107.541 293.224 110.659 302.543C110.934 303.358 111.154 304.191 111.319 305.035C113.003 313.865 105.41 314.786 105.41 314.786Z" fill="#EFD862"/>
<path d="M105.41 314.786L99.4397 320.679L90.3517 329.647L82.9257 336.97L73.8377 345.938L66.4197 353.261L57.3317 362.229L49.9137 369.552L48.9887 370.46H0.802734V367.805C7.79173 366.674 19.7027 364.627 29.9757 362.255C34.2824 361.314 38.5366 360.148 42.7207 358.76C44.3072 358.236 45.8437 357.571 47.3117 356.773C48.8228 355.84 50.2475 354.774 51.5687 353.587C54.7347 350.723 57.7317 347.677 60.5447 344.465C62.8147 341.938 65.1527 339.206 67.4657 336.388C70.2747 332.988 73.0507 329.476 75.6657 326.088C78.0207 323.039 80.2307 320.088 82.1837 317.403C84.0337 314.885 85.6607 312.598 86.9717 310.696C87.9032 309.297 89.002 308.017 90.2437 306.884C96.7017 301.184 100.505 308.948 101.259 306.184C101.473 305.405 101.165 303.863 100.471 301.91C98.9871 297.983 97.0365 294.248 94.6607 290.786C93.2955 288.712 91.707 286.793 89.9237 285.064C90.5363 283.844 91.5154 282.847 92.7237 282.212C93.5448 281.898 94.4553 281.91 95.2677 282.246C100.159 283.899 107.542 293.227 110.66 302.546C110.935 303.361 111.155 304.194 111.32 305.038C113.003 313.865 105.41 314.786 105.41 314.786Z" fill="#EDC664"/>
<g opacity="0.45">
<g style="mix-blend-mode:overlay" opacity="0.45">
<path d="M49.9157 369.557L48.9907 370.465H35.4487L29.9757 362.259L7.88574 329.146C10.9607 327.399 14.7857 325.412 19.0377 323.279L42.7157 358.769L49.9157 369.557Z" fill="black"/>
</g>
<g style="mix-blend-mode:overlay" opacity="0.45">
<path d="M66.4206 353.266L57.3326 362.234L51.5686 353.592L28.3306 318.748C32.0566 316.975 35.9306 315.168 39.8076 313.386L60.5436 344.469L66.4206 353.266Z" fill="black"/>
</g>
<g style="mix-blend-mode:overlay" opacity="0.45">
<path d="M82.9259 336.975L73.8379 345.943L67.4649 336.393L49.2549 309.093C53.3059 307.269 57.2459 305.53 60.8949 303.945L75.6609 326.095L82.9259 336.975Z" fill="black"/>
</g>
<g style="mix-blend-mode:overlay" opacity="0.45">
<path d="M99.4346 320.683L90.3466 329.651L82.1806 317.412L70.4546 299.836C75.3196 297.772 78.9166 296.316 80.4756 295.768C81.099 295.55 81.7034 295.281 82.2826 294.963L90.2396 306.894L99.4346 320.683Z" fill="black"/>
</g>
</g>
<path d="M529.99 302.542C527.318 301.805 523.026 300.409 518.478 298.722C510.195 295.647 501.078 291.587 499.378 288.769C496.748 284.392 507.9 267.99 507.027 263.399C506.154 258.808 506.479 252.358 509.871 252.136C513.263 251.914 528.792 259.356 528.792 259.356C528.792 259.356 533.272 247.981 539.507 247.219C545.742 246.457 537.862 258.585 539.284 266.019C539.447 266.85 539.652 267.681 539.892 268.503C541.308 272.87 543.351 277.007 545.956 280.786C545.956 280.786 548.465 301.78 529.99 302.542Z" fill="#FFAEBF"/>
<path d="M529.988 302.544C527.316 301.807 523.024 300.411 518.476 298.724C526.313 294.064 535.598 277.285 539.889 268.506C541.305 272.873 543.348 277.01 545.953 280.789C545.953 280.789 548.465 301.78 529.988 302.544Z" fill="#FF85A8"/>
<path d="M604.671 320.915L587.618 352.624C587.618 352.624 584.757 350.234 580.312 346.524C565.203 333.89 531.79 305.882 530.102 303.852C529.443 303.064 529.956 300.88 531.202 298.079C534.08 291.604 540.872 281.848 546.071 278.49L604.671 320.915Z" fill="#453759"/>
<path d="M589.947 340.007L580.311 346.525C565.202 333.891 531.789 305.883 530.101 303.853C529.442 303.065 529.955 300.881 531.201 298.08C565.701 319.39 582.918 318.114 586.156 317.849C589.656 317.557 589.947 340.007 589.947 340.007Z" fill="#2B223A"/>
<path d="M643.197 330.756V370.465H603.797L593.741 361.917L576.902 347.596C576.902 347.596 568.808 323.759 593.082 309.541C606.221 318.081 627.891 325.764 637.87 329.061C641.176 330.148 643.197 330.756 643.197 330.756Z" fill="#F44DA8"/>
<path d="M643.197 330.756V370.465H603.797L593.741 361.917C625.116 360.735 640.978 345.557 637.869 329.061C641.175 330.148 643.197 330.756 643.197 330.756Z" fill="#D11C88"/>
<path d="M549.956 198.06C547.789 198.908 544.431 200.06 540.646 201.229C539.926 201.452 539.19 201.666 538.446 201.888C529.975 204.372 520.228 206.573 517.187 205.331C512.459 203.395 511.594 183.575 508.151 180.423C504.708 177.271 501.102 171.901 503.688 169.691C506.274 167.481 523.174 164.166 523.174 164.166C523.174 164.166 519.962 152.372 524.502 148.029C529.042 143.686 529.984 158.129 535.568 163.229C536.193 163.794 536.853 164.342 537.538 164.856C541.284 167.508 545.395 169.603 549.743 171.074C549.743 171.074 564.314 186.398 549.956 198.06Z" fill="#FFAEBF"/>
<path d="M549.955 198.054C547.788 198.902 544.43 200.054 540.645 201.223C543.445 186.028 535.18 173.146 535.566 163.223C536.191 163.788 536.851 164.336 537.536 164.85C541.282 167.502 545.393 169.597 549.741 171.068C549.741 171.068 564.311 186.397 549.955 198.054Z" fill="#FF85A8"/>
<path d="M643.197 128.522V191.228C643.197 191.228 590.897 205.446 582.144 201.215C579.041 199.648 575.607 198.846 572.131 198.877C571.574 198.886 571.069 198.92 570.606 198.971C569.453 199.075 568.319 199.34 567.24 199.759C567.24 199.759 557.87 203.039 554.152 199.759C550.434 196.479 549.784 174.397 549.561 168.924C549.381 164.342 559.488 163.442 563.661 160.824C564.387 160.443 564.965 159.831 565.305 159.085C566.838 154.931 574.495 147.933 588.491 144.216C602.487 140.499 626.872 138.723 643.197 128.522Z" fill="#F47B4D"/>
<path d="M570.606 198.972C569.453 199.076 568.319 199.341 567.24 199.76C567.24 199.76 557.87 203.04 554.152 199.76C550.434 196.48 549.784 174.398 549.561 168.925C549.381 164.343 559.488 163.443 563.661 160.825C562.966 174.758 567.549 190.329 570.606 198.972Z" fill="#E04312"/>
<path d="M643.201 164.522V191.228C643.201 191.228 590.901 205.446 582.148 201.215C579.044 199.648 575.611 198.846 572.135 198.877C577.882 190.072 584.058 183.357 598.55 185.652C615.826 188.393 614.516 166.303 627.201 171.768C632.807 174.184 638.546 169.978 643.201 164.522Z" fill="#E55D33"/>
<path d="M544.962 95.6391C543.181 97.1391 540.373 99.3111 537.162 101.63C536.552 102.072 535.923 102.511 535.29 102.961C528.064 108.033 519.54 113.248 516.262 113.048C511.162 112.733 503.979 94.2401 499.706 92.3601C495.433 90.4801 490.294 86.5531 492.033 83.6291C493.772 80.7051 508.714 72.1401 508.714 72.1401C508.714 72.1401 501.885 62.0011 504.789 56.4311C507.693 50.8611 513.223 64.2311 520.151 67.2761C520.925 67.6101 521.725 67.9181 522.54 68.1851C526.939 69.494 531.505 70.1573 536.095 70.1541C536.095 70.1541 554.813 79.9921 544.962 95.6391Z" fill="#FFAEBF"/>
<path d="M544.962 95.6391C543.181 97.1391 540.373 99.3111 537.162 101.63C534.936 86.3401 522.972 76.7941 520.151 67.2771C520.925 67.6111 521.725 67.9191 522.54 68.1861C526.939 69.495 531.505 70.1583 536.095 70.1551C536.095 70.1551 554.814 79.9901 544.962 95.6391Z" fill="#FF85A8"/>
<path d="M545.918 56.9581L533.6 65.2681C533.6 65.2681 537.1 88.4491 547.6 96.5401L567.282 85.1691" fill="white"/>
<path d="M643.201 0.026123V55.7161C643.201 55.7161 566.336 98.2851 558.748 93.4801C557.138 92.4521 555.39 90.1801 553.677 87.2191C547.33 76.2901 541.42 55.9901 544.17 54.8421C547.668 53.3881 643.201 0.026123 643.201 0.026123Z" fill="#453759"/>
<path d="M643.193 2.50113V55.7171C643.193 55.7171 566.328 98.2861 558.74 93.4811C557.13 92.4531 555.382 90.1811 553.669 87.2201C591.707 78.1671 588.435 64.6591 604.889 61.9871C622.379 59.1431 616.689 49.7391 626.756 48.2141C635.54 46.8781 630.486 12.2231 643.193 2.50113Z" fill="#352A47"/>
<path d="M94.0438 198.06C96.2108 198.908 99.5688 200.06 103.354 201.229C104.073 201.452 104.81 201.666 105.554 201.888C114.025 204.372 123.772 206.573 126.813 205.331C131.541 203.395 132.406 183.575 135.849 180.423C139.292 177.271 142.898 171.901 140.311 169.691C137.724 167.481 120.825 164.166 120.825 164.166C120.825 164.166 124.037 152.372 119.497 148.029C114.957 143.686 114.015 158.129 108.431 163.229C107.806 163.794 107.146 164.342 106.461 164.856C102.715 167.508 98.6035 169.603 94.2558 171.074C94.2558 171.074 79.6888 186.398 94.0438 198.06Z" fill="#FFAEBF"/>
<path d="M94.0437 198.055C96.2107 198.903 99.5687 200.055 103.354 201.224C100.554 186.029 108.819 173.147 108.433 163.224C107.808 163.789 107.148 164.337 106.463 164.851C102.717 167.503 98.6055 169.598 94.2577 171.069C94.2577 171.069 79.6887 186.398 94.0437 198.055Z" fill="#FF85A8"/>
<path d="M99.0378 95.6391C100.819 97.1391 103.626 99.3111 106.838 101.63C107.448 102.072 108.077 102.511 108.71 102.961C115.936 108.033 124.46 113.248 127.738 113.048C132.838 112.733 140.021 94.2401 144.294 92.3601C148.567 90.4801 153.706 86.5531 151.967 83.6291C150.228 80.7051 135.286 72.1401 135.286 72.1401C135.286 72.1401 142.115 62.0011 139.211 56.4311C136.307 50.8611 130.777 64.2311 123.848 67.2761C123.075 67.6101 122.274 67.9181 121.46 68.1851C117.061 69.494 112.495 70.1572 107.905 70.1541C107.905 70.1541 89.1858 79.9921 99.0378 95.6391Z" fill="#FFAEBF"/>
<path d="M99.0378 95.6391C100.819 97.1391 103.626 99.3111 106.838 101.63C109.064 86.3401 121.028 76.7941 123.848 67.2771C123.075 67.6111 122.274 67.9191 121.46 68.1861C117.061 69.495 112.495 70.1582 107.905 70.1551C107.905 70.1551 89.1858 79.9901 99.0378 95.6391Z" fill="#FF85A8"/>
<path d="M98.0856 56.9581L110.405 65.2681C110.405 65.2681 106.905 88.4491 96.4046 96.5401L76.7236 85.1681" fill="white"/>
<path d="M99.6967 62.7491C97.6685 71.2843 94.5177 79.513 90.3267 87.2201C88.6137 90.1841 86.8667 92.4531 85.2557 93.4811C77.6677 98.2871 0.802734 55.7161 0.802734 55.7161V0.026123C0.802734 0.026123 6.89273 3.42612 16.0577 8.54012C43.1757 23.6661 97.2137 53.7561 99.8347 54.8401C100.871 55.2721 100.674 58.4161 99.6967 62.7491Z" fill="#864BF7"/>
<path d="M0.802734 2.50113V55.7171C0.802734 55.7171 77.6677 98.2861 85.2557 93.4811C86.8657 92.4531 88.6137 90.1811 90.3267 87.2201C52.2887 78.1671 55.5607 64.6591 39.1067 61.9871C21.6167 59.1431 27.3067 49.7391 17.2397 48.2141C8.45973 46.8781 13.5137 12.2231 0.802734 2.50113Z" fill="#6C33DB"/>
<path d="M92.3567 213.463C87.2567 214.482 78.5067 207.921 64.8027 208.658C51.0987 209.395 0.802734 226.876 0.802734 226.876V182.226C0.802734 182.226 24.4857 174.32 79.3027 169.104C82.0094 168.837 84.7987 168.583 87.6707 168.342C89.6834 168.171 91.7334 168.002 93.8207 167.837C94.4027 174.979 97.4617 212.444 92.3567 213.463Z" fill="#F44DA8"/>
<path d="M92.3567 213.463C87.2567 214.482 78.5067 207.921 64.8027 208.658C51.0987 209.395 0.802734 226.876 0.802734 226.876V203.913C26.7127 206.962 63.3547 189.613 66.0447 185.763C69.1027 181.395 81.1367 202.163 82.6617 202.388C84.0837 202.588 87.2357 172.598 87.6727 168.341C89.6854 168.17 91.7354 168.001 93.8227 167.836C94.4027 174.979 97.4617 212.444 92.3567 213.463Z" fill="#D62990"/>
</svg>
