<svg width="704" height="578" viewBox="0 0 704 578" fill="none" xmlns="http://www.w3.org/2000/svg">
<path d="M195.701 538.962L176.738 509.372L162.927 519.15L183.214 547.803L195.701 538.962Z" fill="#E1838E"/>
<path d="M195.7 538.961L180.23 549.918C180.23 549.918 161.577 561.835 168.455 577.928L204.979 552.068L195.7 538.961Z" fill="#1C1C1A"/>
<path d="M128.049 317.042L97.1652 437.034C96.4726 439.726 96.3771 442.536 96.8853 445.269C97.3935 448.001 98.4932 450.589 100.107 452.852L161.778 539.323L193.094 509.356L147.816 446.551L150.751 317.19L128.049 317.042Z" fill="#4D52D8"/>
<path d="M149.125 561.577L150.717 526.468L133.794 526.482L133.824 561.589L149.125 561.577Z" fill="#E1838E"/>
<path d="M149.125 561.577C148.336 561.577 130.168 561.594 130.168 561.594C130.168 561.594 108.058 560.56 104.386 577.672L149.138 577.634L149.125 561.577Z" fill="#1C1C1A"/>
<path d="M135.643 317.035L127.587 539.348L161.777 539.318L177.338 410.965C177.338 410.965 202.759 341.607 176.59 317.449L135.643 317.035Z" fill="#4D52D8"/>
<path d="M129.241 493.703L134.678 343.67" stroke="#1C1C1A" stroke-width="0.912" stroke-miterlimit="10"/>
<path d="M169.395 476.484L161.777 539.323" stroke="#1C1C1A" stroke-width="0.912" stroke-miterlimit="10"/>
<path d="M134.643 314.459C134.643 314.459 126.975 318.941 65.7383 278.523L72.2213 268.694L120.335 292.145L171.144 309.979L134.643 314.459Z" fill="#E1838E"/>
<path d="M61.4192 277.635C59.3019 276.57 57.548 274.901 56.3793 272.84C55.2105 270.778 54.6794 268.416 54.853 266.052C55.0267 263.689 55.8973 261.429 57.3548 259.561C58.8123 257.692 60.7913 256.297 63.0414 255.553C65.2915 254.809 67.7118 254.749 69.9961 255.38C72.2805 256.012 74.3263 257.306 75.8749 259.1C77.4235 260.894 78.4053 263.107 78.6962 265.459C78.9871 267.811 78.574 270.197 77.5092 272.314C76.8022 273.72 75.8252 274.973 74.6339 276.001C73.4427 277.03 72.0605 277.813 70.5663 278.307C69.0722 278.802 67.4954 278.997 65.9259 278.881C64.3564 278.766 62.825 278.342 61.4192 277.635Z" fill="#E1838E"/>
<path d="M46.218 211.57L45.039 202.713C44.021 195.056 44.7697 188.177 47.285 182.077C49.8003 175.977 54.982 169.157 62.83 161.616C70.4113 154.517 75.2883 148.917 77.461 144.816C79.617 140.81 80.4362 136.22 79.799 131.716C79.109 126.53 76.6687 122.836 72.478 120.633C68.2873 118.43 62.761 117.785 55.899 118.697C43.9337 120.291 30.812 126.016 16.534 135.873L0 111.397C15.9372 99.2751 34.7623 91.5226 54.614 88.9061C71.0473 86.7188 84.637 88.9291 95.383 95.5371C106.129 102.145 112.377 112.031 114.127 125.195C115.296 133.971 114.311 141.816 111.172 148.729C108.033 155.642 101.41 163.831 91.301 173.295C84.3963 179.981 80.1233 184.934 78.482 188.155C76.8407 191.376 76.3383 195.38 76.975 200.169L77.931 207.349L46.218 211.57ZM47.839 253.006C46.9477 246.304 48.0687 240.999 51.202 237.09C54.3353 233.181 59.332 230.771 66.192 229.859C72.814 228.976 78.1743 230.049 82.273 233.078C86.3717 236.107 88.8547 240.891 89.722 247.432C90.5613 253.735 89.3877 258.945 86.201 263.062C83.0143 267.179 78.15 269.674 71.608 270.546C64.906 271.439 59.4843 270.355 55.343 267.292C51.2017 264.229 48.7003 259.467 47.839 253.006Z" fill="#4D52D7"/>
<path d="M178.116 318.981C178.128 317.914 175.44 242.432 175.44 242.432L161.518 236.863L144.431 236.877C144.431 236.877 125.597 238.467 124.189 256.403L128.048 317.042L178.116 318.981Z" fill="#E28F36"/>
<path d="M127.988 245.733C127.988 245.733 109.588 268.271 130.652 283.77C151.716 299.269 148.579 274.684 148.579 274.684L127.988 245.733Z" fill="#E28F36"/>
<path d="M188.903 261.316C188.903 261.316 197.53 299.462 189.003 372.338L177.308 370.973L176.595 317.453L169.651 264.053L188.903 261.316Z" fill="#E1838E"/>
<path d="M190.15 376.597C190.152 378.967 189.451 381.284 188.136 383.256C186.821 385.228 184.951 386.765 182.762 387.674C180.573 388.583 178.164 388.822 175.839 388.362C173.514 387.901 171.378 386.762 169.701 385.087C168.024 383.413 166.881 381.279 166.416 378.955C165.952 376.631 166.187 374.221 167.092 372.031C167.998 369.84 169.532 367.967 171.501 366.649C173.471 365.331 175.787 364.626 178.157 364.624C179.731 364.623 181.289 364.931 182.744 365.532C184.198 366.133 185.52 367.015 186.634 368.126C187.747 369.238 188.631 370.559 189.234 372.012C189.838 373.465 190.149 375.023 190.15 376.597Z" fill="#E1838E"/>
<path d="M161.518 236.863C161.518 236.863 191.788 232.284 192.884 266.093L169.073 276.08L161.518 236.863Z" fill="#E28F36"/>
<path d="M169.645 267.602L176.147 318.982" stroke="#1C1C1A" stroke-width="0.912" stroke-miterlimit="10"/>
<path d="M168.352 194.524C166.104 207.674 156.22 222.177 143.07 219.924C139.943 219.39 136.952 218.244 134.267 216.554C131.583 214.863 129.258 212.66 127.425 210.071C125.592 207.481 124.287 204.556 123.584 201.463C122.882 198.369 122.796 195.167 123.331 192.04C125.579 178.89 135.465 171.645 148.615 173.893C161.765 176.141 170.602 181.368 168.352 194.524Z" fill="#040901"/>
<path d="M150.997 205.845L161.517 236.867L145.772 245.987L135.551 211.487L150.997 205.845Z" fill="#E1838E"/>
<path d="M138.676 175.233C138.676 175.233 125.744 172.274 122.766 182.262C120.334 190.419 132.623 194.651 132.623 194.651L138.676 175.233Z" fill="#040901"/>
<path d="M137.922 179.351C126.447 177.388 124.748 185.886 124.748 185.886L119.359 205.478C118.459 211.859 118.936 217.594 123.889 221.337C126.912 223.496 130.647 224.418 134.328 223.914L139.046 223.366C142.846 222.925 145.227 219.488 146.063 215.925L147.61 196.297C147.61 196.297 149.396 181.312 137.922 179.351Z" fill="#E1838E"/>
<path d="M122.68 197.51L116.38 202.848C115.991 203.215 115.758 203.717 115.729 204.251C115.701 204.785 115.879 205.309 116.227 205.715L120.004 208.515L122.68 197.51Z" fill="#E1838E"/>
<path d="M139.062 223.337C142.16 221.989 144.667 219.565 146.119 216.514C145.47 220.917 143.53 225.029 140.545 228.33L139.062 223.337Z" fill="#040901"/>
<path d="M127.278 178.895C127.278 178.895 137.4 181.857 140.478 199.258L153.778 199.685C153.778 199.685 153.778 179.398 150.039 178.626C146.3 177.854 129.98 174.018 127.278 178.895Z" fill="#040901"/>
<path d="M139.677 192.796L141.277 205.722L146.262 196.236L139.677 192.796Z" fill="#040901"/>
<path d="M145.276 208.882C145.276 208.882 148.91 218.86 155.401 220.982L158.969 207.032L145.276 208.882Z" fill="#040901"/>
<path d="M141.049 202.888C140.651 204.105 140.624 205.412 140.969 206.645C141.315 207.877 142.018 208.979 142.99 209.812C143.962 210.645 145.16 211.171 146.431 211.323C147.701 211.476 148.989 211.248 150.13 210.668C151.272 210.089 152.216 209.184 152.843 208.068C153.47 206.952 153.752 205.676 153.654 204.399C153.555 203.123 153.081 201.905 152.29 200.898C151.499 199.892 150.427 199.143 149.211 198.745C147.579 198.212 145.802 198.349 144.272 199.126C142.741 199.903 141.582 201.256 141.049 202.888Z" fill="#E1838E"/>
<path d="M127.93 179.163C127.93 179.163 127.278 190.589 141.243 196.824C152.007 201.632 149.811 185.873 149.811 185.873L127.93 179.163Z" fill="#040901"/>
<path d="M195.634 178.743C194.715 182.749 192.628 186.392 189.639 189.212C186.649 192.032 182.89 193.902 178.838 194.585C174.786 195.269 170.622 194.736 166.872 193.053C163.123 191.37 159.957 188.613 157.774 185.131C155.592 181.649 154.491 177.597 154.611 173.489C154.731 169.382 156.066 165.401 158.448 162.052C160.83 158.703 164.152 156.136 167.993 154.675C171.834 153.214 176.022 152.924 180.028 153.843C182.687 154.453 185.201 155.581 187.425 157.163C189.649 158.744 191.539 160.749 192.988 163.061C194.437 165.373 195.417 167.948 195.871 170.639C196.325 173.33 196.244 176.083 195.634 178.743Z" fill="#040901"/>
<path d="M161.519 236.863C161.519 236.863 152.703 255.14 143.074 250.192C133.445 245.244 147.634 233.87 147.634 233.87L161.519 236.863Z" fill="#E1838E"/>
<path d="M319.334 560.357L321.363 525.248L338.286 525.234L334.635 560.344L319.334 560.357Z" fill="#E1838E"/>
<path d="M319.334 560.357L338.289 560.341C338.289 560.341 360.399 559.269 364.098 576.375L318.357 576.413L319.334 560.357Z" fill="#1C1C1A"/>
<path d="M355.896 325.936L344.449 544.377L309.877 544.407L316.63 325.971L355.896 325.936Z" fill="#2D2D84"/>
<path d="M260.644 560.408L266.354 525.296L283.277 525.282L275.944 560.396L260.644 560.408Z" fill="#E1838E"/>
<path d="M260.644 560.408L279.599 560.392C279.599 560.392 301.709 559.32 305.408 576.426L258.815 576.466L260.644 560.408Z" fill="#1C1C1A"/>
<path d="M284.898 327.399C284.898 327.399 251.613 543.899 253.53 544.284C255.447 544.669 290.599 544.251 290.599 544.251L335.32 326.323L284.898 327.399Z" fill="#2D2D84"/>
<path d="M313.369 435.171L328.687 361.896" stroke="#1C1C1A" stroke-width="0.912" stroke-miterlimit="10"/>
<path d="M346.982 237.583C346.129 233.923 344.11 230.64 341.23 228.226C338.35 225.812 334.764 224.399 331.012 224.199C326.192 223.912 321.36 223.872 316.537 224.081C316.537 224.081 298.211 224.881 282.083 240.974L284.896 327.4L355.896 325.936L346.982 237.583Z" fill="#FDFBF6"/>
<path d="M360.946 356.37C358.519 357.639 355.77 358.16 353.047 357.867C350.324 357.574 347.749 356.48 345.648 354.723C343.547 352.966 342.014 350.626 341.243 347.998C340.472 345.37 340.497 342.573 341.316 339.959C342.135 337.346 343.71 335.034 345.843 333.316C347.976 331.598 350.571 330.551 353.298 330.307C356.026 330.064 358.765 330.635 361.169 331.948C363.572 333.261 365.532 335.257 366.801 337.684C368.502 340.939 368.841 344.735 367.743 348.24C366.645 351.744 364.2 354.669 360.946 356.37Z" fill="#E1838E"/>
<path d="M353.025 333.809L333.472 325.348L328.356 338.387L348.372 348.226L353.025 333.809Z" fill="#E1838E"/>
<path d="M312.463 241.689L294.263 298.92L344.771 328.131L335.046 346.631L270.759 315.931C267.841 314.538 265.522 312.14 264.227 309.177C262.931 306.215 262.745 302.885 263.704 299.796C263.704 299.796 268.567 259.426 281.95 240.986C286.142 235.209 312.463 241.689 312.463 241.689Z" fill="#FDFBF6"/>
<path d="M302.564 272.813L294.264 298.918L344.771 328.123" stroke="#1C1C1A" stroke-width="0.912" stroke-miterlimit="10"/>
<path d="M423.286 173.098C425.247 175.01 426.597 177.46 427.166 180.139C427.734 182.819 427.495 185.606 426.479 188.149C425.463 190.693 423.716 192.877 421.458 194.428C419.2 195.978 416.534 196.824 413.795 196.859C411.057 196.893 408.37 196.115 406.073 194.623C403.777 193.13 401.975 190.99 400.895 188.473C399.815 185.957 399.506 183.176 400.006 180.483C400.506 177.791 401.794 175.307 403.705 173.346C406.269 170.717 409.773 169.214 413.445 169.167C417.117 169.121 420.657 170.535 423.286 173.098Z" fill="#E1838E"/>
<path d="M404.307 187.643L402.351 208.863L416.335 209.663L419.458 187.58L404.307 187.643Z" fill="#E1838E"/>
<path d="M334.694 224.844L393.62 246.255L400.094 196.455L420.071 200.012L412.695 269.689C411.313 272.613 408.925 274.942 405.968 276.249C403.01 277.557 399.681 277.757 396.588 276.812L345.125 258.812L334.694 224.844Z" fill="#FDFBF6"/>
<path d="M379.862 130.375L377.621 121.422C375.683 113.68 375.65 106.532 377.521 99.9781C379.391 93.4241 383.916 85.8211 391.096 77.1691C398.055 69.0004 402.41 62.6831 404.162 58.2171C405.907 53.8548 406.214 49.0488 405.036 44.5001C403.724 39.2568 400.791 35.7488 396.236 33.9761C391.68 32.2035 385.933 32.1848 378.994 33.9201C366.896 36.9468 354.094 44.3505 340.588 56.1311L320.771 32.9371C335.717 18.6395 354.136 8.49064 374.207 3.49412C390.821 -0.663213 405.026 0.0234513 416.824 5.55412C428.621 11.0848 436.185 20.5048 439.515 33.8141C441.735 42.6855 441.636 50.8521 439.22 58.3141C436.803 65.7761 430.958 74.9521 421.684 85.8421C415.374 93.5088 411.564 99.0901 410.256 102.586C408.947 106.082 408.898 110.251 410.109 115.094L411.925 122.352L379.862 130.375ZM386.345 172.717C384.649 165.942 385.182 160.367 387.945 155.991C390.707 151.615 395.556 148.559 402.49 146.823C409.183 145.148 414.809 145.625 419.369 148.256C423.928 150.887 427.034 155.508 428.688 162.121C430.282 168.495 429.682 173.98 426.888 178.575C424.094 183.17 419.393 186.296 412.786 187.953C406.011 189.648 400.32 189.165 395.713 186.505C391.105 183.845 387.984 179.249 386.349 172.717H386.345Z" fill="#4D52D7"/>
<path d="M310.251 193.701L305.124 224.721C304.896 226.221 304.968 227.751 305.335 229.224C305.703 230.696 306.359 232.08 307.265 233.297C308.172 234.513 309.311 235.538 310.616 236.312C311.922 237.085 313.367 237.592 314.87 237.802C316.375 238.013 317.906 237.922 319.375 237.536C320.845 237.149 322.223 236.475 323.429 235.552C324.636 234.628 325.647 233.475 326.404 232.157C327.16 230.84 327.648 229.385 327.838 227.878L331.293 203.092L310.251 193.701Z" fill="#E1838E"/>
<path d="M337.244 173.422L343.101 194.609C346.511 203.281 340.506 215.687 331.22 214.903C327.183 214.404 323.473 212.431 320.802 209.363C318.13 206.296 316.686 202.349 316.747 198.282L317.094 174.547C317.779 172.961 332.27 165.062 337.244 173.422Z" fill="#E1838E"/>
<path d="M339.366 184.937L345.566 190.907C345.97 191.282 346.213 191.799 346.246 192.349C346.278 192.899 346.098 193.441 345.741 193.861L343.328 195.699L339.366 184.937Z" fill="#E1838E"/>
<path d="M312.024 193.329C312.024 193.329 318.07 205.005 307.853 208.208L298.342 198.575C296.336 196.099 294.855 193.239 293.991 190.171C293.127 187.104 292.898 183.892 293.317 180.732C294.125 175.943 296.581 172.825 302.379 168.132C316.121 157.02 326.903 161.765 329.101 168.583L320.333 185.698L312.024 193.329Z" fill="#040901"/>
<path d="M322.621 171.469C322.621 171.469 328.355 182.723 318.373 187.356L322.621 171.469Z" fill="#040901"/>
<path d="M320.34 182.123L322.466 190.456L316.512 192.072L316.623 183.744L320.34 182.123Z" fill="#040901"/>
<path d="M329.683 214.64C329.683 214.64 321.823 212.184 319.299 206.94C320.749 212.234 324.237 216.739 328.999 219.469L329.683 214.64Z" fill="#040901"/>
<path d="M317.537 190.326C318.216 191.515 318.494 192.89 318.331 194.249C318.167 195.608 317.571 196.879 316.63 197.873C315.69 198.867 314.454 199.532 313.106 199.77C311.758 200.008 310.369 199.806 309.145 199.194C307.921 198.582 306.926 197.593 306.307 196.372C305.688 195.151 305.479 193.763 305.709 192.414C305.94 191.065 306.598 189.826 307.587 188.879C308.576 187.933 309.843 187.33 311.201 187.159C312.452 187.003 313.721 187.22 314.849 187.783C315.976 188.347 316.912 189.232 317.537 190.326Z" fill="#E1838E"/>
<path d="M364.855 167.114C364.712 166.745 364.437 166.443 364.084 166.266C363.73 166.089 363.323 166.05 362.942 166.157L338.223 173.108C335.275 166.508 327.475 156.288 312.204 159.372C293.127 163.226 290.866 177.446 292.061 186.196C292.195 187.166 292.368 188.096 292.567 188.976L363.797 169.22C364.011 169.161 364.211 169.058 364.382 168.917C364.554 168.776 364.694 168.601 364.794 168.402C364.894 168.204 364.951 167.986 364.961 167.765C364.972 167.543 364.935 167.321 364.855 167.114Z" fill="#5945F3"/>
<path d="M490.478 209.451C490.478 209.451 441.837 210.559 464.186 246.026C472.409 259.074 470.435 266.846 466.829 271.249C466.58 271.529 466.431 271.883 466.404 272.257C466.377 272.63 466.474 273.002 466.681 273.315C466.887 273.627 467.191 273.863 467.545 273.985C467.899 274.108 468.283 274.11 468.638 273.991C480.238 269.979 496.792 259.913 481.185 236.948C481.185 236.948 469.7 221.625 492.703 212.202L490.478 209.451Z" fill="#040901"/>
<path d="M489.07 202.888C488.714 203.223 480.186 206.553 484.479 213.815C488.772 221.077 498.279 216.37 498.279 216.37L489.07 202.888Z" fill="#E28F36"/>
<path d="M487.422 207.567C488.907 210.45 490.946 213.011 493.421 215.106C495.896 217.201 498.76 218.788 501.848 219.776C504.937 220.764 508.19 221.134 511.421 220.865C514.653 220.595 517.8 219.692 520.682 218.207C532.804 211.961 536.123 197.816 529.882 185.692C523.641 173.568 510.19 168.062 498.066 174.307C495.183 175.792 492.621 177.83 490.526 180.305C488.431 182.781 486.844 185.644 485.856 188.733C484.867 191.821 484.497 195.074 484.766 198.306C485.034 201.537 485.937 204.684 487.422 207.567Z" fill="#040901"/>
<path d="M505.411 203.584L526.298 213.531L529.044 228.684C529.044 228.684 531.212 232.675 526.844 236.66C522.476 240.645 513.729 242.746 511.465 237.74L505.411 203.584Z" fill="#E1838E"/>
<path d="M516.662 204.01L509.612 198.387C509.612 198.387 509.812 225.412 527.931 222.544L526.299 213.53L516.662 204.01Z" fill="#040901"/>
<path d="M529.127 217.138C537.22 212.969 541.327 204.675 537.157 196.58L526.534 175.962C525.654 174.268 524.139 172.992 522.32 172.411C520.501 171.83 518.527 171.992 516.827 172.862L500.208 181.425C498.513 182.304 497.235 183.819 496.653 185.637C496.071 187.456 496.233 189.431 497.102 191.131L506.554 209.476C510.724 217.562 522.302 220.655 529.127 217.138Z" fill="#E1838E"/>
<path d="M531.821 189.466L538.732 191.424C539.098 191.605 539.386 191.911 539.542 192.288C539.699 192.664 539.714 193.084 539.585 193.471L536.924 197.96L531.821 189.466Z" fill="#E1838E"/>
<path d="M517.578 172.471C517.578 172.471 525.142 189.171 505.408 200.688C505.408 200.688 492.9 201.888 492.414 194.267C491.928 186.646 494.889 178.736 500.838 176.779C506.787 174.822 517.578 172.471 517.578 172.471Z" fill="#040901"/>
<path d="M518.015 173.661C518.015 173.661 523.567 173.947 529.271 181.275C529.271 181.275 533.231 173.854 523.234 169.557C513.237 165.26 510.141 178.638 510.141 178.638L518.015 173.661Z" fill="#040901"/>
<path d="M497.745 206.941C498.33 208.077 499.239 209.014 500.357 209.633C501.474 210.253 502.75 210.527 504.024 210.421C505.297 210.315 506.51 209.834 507.51 209.039C508.51 208.243 509.252 207.169 509.641 205.952C510.031 204.735 510.05 203.43 509.698 202.202C509.346 200.974 508.637 199.878 507.662 199.052C506.686 198.227 505.488 197.709 504.219 197.565C502.949 197.42 501.665 197.656 500.529 198.241C499.007 199.026 497.858 200.383 497.336 202.015C496.814 203.646 496.961 205.418 497.745 206.941Z" fill="#E1838E"/>
<path d="M522.836 560.357L524.865 525.248L541.788 525.234L538.137 560.344L522.836 560.357Z" fill="#E1838E"/>
<path d="M522.836 560.357L541.793 560.341C541.793 560.341 563.903 559.269 567.602 576.375L521.861 576.413L522.836 560.357Z" fill="#1C1C1A"/>
<path d="M545.763 315.71L555.187 445.702L551.477 543.695H515.291L517.491 432.915L507.378 317.65L545.763 315.71Z" fill="#E28F36"/>
<path d="M469.045 560.358L478.521 525.289L495.444 525.274L484.344 560.345L469.045 560.358Z" fill="#E1838E"/>
<path d="M469.044 560.358L488.001 560.342C488.001 560.342 510.111 559.27 513.81 576.376L465.297 576.414L469.044 560.358Z" fill="#1C1C1A"/>
<path d="M500.718 317.651C500.718 317.651 483.204 333.151 485.105 379.312L486.305 441.312L454.493 542.746L493.987 545.346L525.846 443.832L539.225 311.266L500.718 317.651Z" fill="#E28F36"/>
<path d="M516.806 472.633L525.867 440.533L534.144 358.458" stroke="#1C1C1A" stroke-width="0.912" stroke-miterlimit="10"/>
<path d="M617.677 159.344C617.008 158.928 614.789 149.767 625.563 151.735C636.337 153.703 638.507 148.735 642.895 151.835C647.283 154.935 646.733 165.023 624.842 162.578L617.677 159.344Z" fill="#E1838E"/>
<path d="M617.035 156.412L612.653 166.658L621.56 171.079L626.232 157.751L617.035 156.412Z" fill="#E1838E"/>
<path d="M529.535 231.705L585.903 213.595L608.103 163.048L628.803 168.948L607.909 223.014C606.838 225.541 605.116 227.739 602.919 229.383C594.394 235.755 570.403 251.533 535.498 257.062C533.734 257.337 531.932 257.246 530.204 256.795C528.476 256.344 526.859 255.544 525.454 254.442C524.048 253.341 522.884 251.963 522.033 250.393C521.182 248.824 520.662 247.096 520.506 245.317C520.244 242.361 520.995 239.403 522.636 236.929C524.277 234.456 526.709 232.614 529.535 231.705Z" fill="#2D2D84"/>
<path d="M499.092 317.652C499.08 316.584 489.428 256.138 489.428 256.138L517.858 233.676L534.945 233.692C534.945 233.692 553.777 235.282 555.185 253.218L545.762 315.711L499.092 317.652Z" fill="#2D2D84"/>
<path d="M551.389 242.547C551.389 242.547 569.789 265.084 548.725 280.582C527.661 296.08 530.798 271.496 530.798 271.496L551.389 242.547Z" fill="#2D2D84"/>
<path d="M573.735 152.489C572.989 152.234 568.762 143.808 579.703 143.298C590.644 142.788 591.637 137.458 596.61 139.484C601.583 141.51 603.324 151.469 581.443 154.022L573.735 152.489Z" fill="#E1838E"/>
<path d="M572.451 149.778L570.492 160.748L580.166 163.048L581.714 149.01L572.451 149.778Z" fill="#E1838E"/>
<path d="M496.166 241.256L548.907 214.356L565.798 156.656L587.173 159.167L572.132 220.136C571.482 222.802 570.136 225.247 568.232 227.223C560.832 234.877 539.68 254.292 506.111 265.338C504.413 265.891 502.619 266.09 500.841 265.921C499.063 265.753 497.339 265.221 495.775 264.358C494.211 263.495 492.841 262.321 491.75 260.907C490.658 259.493 489.869 257.87 489.431 256.138C488.7 253.261 488.968 250.222 490.192 247.517C491.416 244.813 493.522 242.605 496.166 241.256Z" fill="#2D2D84"/>
<path d="M572.586 218.302L568.796 229.244C568.328 230.594 567.375 231.722 566.122 232.409L523.87 257.223" stroke="#1C1C1A" stroke-width="0.912" stroke-miterlimit="10"/>
<path d="M576.067 111.375L584.677 108.614C592.123 106.226 599.109 105.738 605.635 107.15C612.161 108.562 619.883 112.501 628.801 118.968C637.232 125.247 643.686 129.1 648.164 130.529C652.54 131.957 657.259 131.95 661.63 130.508C666.672 128.89 669.915 125.797 671.357 121.229C672.8 116.661 672.451 111.041 670.311 104.369C666.578 92.7351 658.523 80.6914 646.146 68.2381L667.555 47.3821C682.489 61.0808 693.589 78.4408 699.755 97.7451C704.882 113.722 705.118 127.656 700.463 139.545C695.809 151.434 687.082 159.43 674.284 163.533C665.751 166.27 657.761 166.695 650.313 164.81C642.866 162.925 633.522 157.796 622.28 149.423C614.384 143.744 608.684 140.378 605.18 139.323C601.677 138.268 597.598 138.486 592.944 139.977L585.963 142.216L576.067 111.375ZM535.085 120.417C541.6 118.327 547.085 118.494 551.541 120.917C555.997 123.34 559.294 127.885 561.432 134.551C563.499 140.987 563.391 146.519 561.109 151.146C558.827 155.773 554.507 159.105 548.148 161.14C542.021 163.107 536.621 162.873 531.948 160.44C527.276 158.007 523.918 153.609 521.876 147.247C519.786 140.732 519.895 135.138 522.202 130.463C524.51 125.788 528.804 122.44 535.085 120.417Z" fill="#4D52D7"/>
</svg>
